<svg xmlns="http://www.w3.org/2000/svg" fill-rule="evenodd" stroke-linejoin="round" stroke-miterlimit="1.414" clip-rule="evenodd" viewBox="0 0 94 94">
  <g fill-rule="nonzero">
    <path fill="#563d7c" d="M93.75 78.125c0 8.594-7.031 15.625-15.625 15.625h-62.5C7.031 93.75 0 86.719 0 78.125v-62.5C0 7.031 7.031 0 15.625 0h62.5C86.719 0 93.75 7.031 93.75 15.625v62.5z"/>
    <path fill="#fff" d="M25.475 20.374h26.578c4.902 0 8.839 1.118 11.795 3.37 2.957 2.252 4.442 5.637 4.442 10.187 0 2.757-.674 5.116-2.022 7.077-1.348 1.961-3.278 3.493-5.79 4.565v.153c3.37.72 5.928 2.313 7.659 4.78 1.731 2.481 2.604 5.575 2.604 9.313 0 2.145-.383 4.152-1.148 6.005-.766 1.869-1.961 3.477-3.6 4.826-1.639 1.348-3.723 2.42-6.281 3.216-2.558.797-5.591 1.195-9.115 1.195H25.475V20.374zm9.574 22.901h15.625c2.298 0 4.213-.643 5.745-1.961 1.531-1.317 2.297-3.186 2.297-5.637 0-2.757-.689-4.703-2.068-5.821-1.378-1.118-3.37-1.685-5.974-1.685H35.049v15.104zm0 23.974h16.927c2.911 0 5.178-.751 6.771-2.267 1.608-1.502 2.42-3.646 2.42-6.404 0-2.711-.796-4.779-2.42-6.25-1.624-1.47-3.86-2.175-6.771-2.175H35.049v17.096z"/>
  </g>
</svg>
