<svg xmlns="http://www.w3.org/2000/svg" fill-rule="evenodd" stroke-linejoin="round" stroke-miterlimit="1.414" clip-rule="evenodd" viewBox="0 0 38 38">
  <path fill="#fff" fill-rule="nonzero" d="M35.43 0H2.055A2.08 2.08 0 0 0 0 2.07v33.375A2.08 2.08 0 0 0 2.07 37.5h17.963V22.999h-4.875v-5.678h4.875v-4.173c0-4.842 2.958-7.5 7.278-7.5a38.802 38.802 0 0 1 4.365.225v5.077h-3c-2.343 0-2.797 1.125-2.797 2.756v3.615H31.5l-.75 5.678h-4.875V37.5h9.555a2.08 2.08 0 0 0 2.07-2.07V2.055A2.08 2.08 0 0 0 35.43 0z"/>
</svg>
