<svg xmlns="http://www.w3.org/2000/svg" fill-rule="evenodd" stroke-linejoin="round" stroke-miterlimit="1.414" clip-rule="evenodd" viewBox="0 0 38 25">
  <g fill="#fff">
    <path d="M0 11.898C0 8.086 1.351 4.675 4.072 1.645 5.054.562 5.873 0 6.425 0c.185 0 .369.06.553.181.123.12.245.301.245.481 0 .301-.368.722-1.043 1.405-2.845 2.668-4.277 5.938-4.277 9.891 0 4.374 1.494 7.885 4.4 10.613.614.542.859.963.859 1.325 0 .18-.123.361-.245.541-.123.121-.369.241-.553.241-.675 0-1.617-.782-2.844-2.307C1.125 19.482 0 16.031 0 11.898zM37.488 12.861c0 3.812-1.35 7.222-4.072 10.252-.982 1.083-1.8 1.645-2.353 1.645-.184 0-.368-.06-.552-.18-.123-.121-.246-.361-.246-.542 0-.301.368-.722 1.044-1.324 2.844-2.669 4.276-5.939 4.276-9.891 0-4.374-1.493-7.885-4.399-10.614-.614-.542-.86-.963-.86-1.324 0-.181.123-.361.246-.542.123-.12.368-.241.552-.241.614 0 1.617.783 2.845 2.308 2.271 2.889 3.519 6.34 3.519 10.453zM27.335 23.922H10.181c-.615 0-1.076-.451-1.076-1.054 0-.602.461-1.054 1.076-1.054h17.154c.614 0 1.075.452 1.075 1.054-.153.603-.461 1.054-1.075 1.054zM15.102 2.067s1.432.963 1.432 2.728c0 3.03-4.215 6.36-4.215 9.51 0 3.391 2.66 5.578 5.197 6.24.369.06.492-.301.062-.421-1.044-.241-2.169-1.585-2.169-3.632 0-1.946 1.923-2.668 2.66-3.571.798-.963.614-2.187.123-2.548-.491-.361-.123-.843.675-.241.798.542 1.494 1.645 1.228 2.608-.307 1.264.123 2.007.798 2.127.675.12 1.432-.241 1.35-.843-.081-.602-.429-1.264-.245-1.264.491 0 1.494 1.144 1.494 3.03s-1.556 3.15-2.047 3.631c-.307.301.062.662.491.482.185-.06.614-.301.86-.482 1.228-.842 3.151-2.608 3.151-5.818 0-3.391-1.289-4.916-2.66-6.18-1.351-1.264-1.678-.963-1.289-.3 1.105 1.885.43 2.548-.368 2.548-.983 0-.983-2.127-1.433-3.752-.798-3.632-4.215-4.254-4.829-4.314-.45-.201-1.023.161-.266.462z"/>
  </g>
</svg>
