<svg xmlns="http://www.w3.org/2000/svg" fill-rule="evenodd" stroke-linejoin="round" stroke-miterlimit="1.414" clip-rule="evenodd" viewBox="0 0 94 92">
  <path fill="#2c2c2c" fill-rule="nonzero" stroke="gray" stroke-width=".2" d="M46.871 0C20.989 0 0 21.001 0 46.909c0 20.724 13.43 38.304 32.057 44.507 2.345.432 3.2-1.017 3.2-2.261 0-1.111-.041-4.063-.064-7.976-13.038 2.833-15.789-6.289-15.789-6.289-2.133-5.42-5.206-6.862-5.206-6.862-4.256-2.909.322-2.851.322-2.851 4.705.331 7.18 4.835 7.18 4.835 4.181 7.167 10.973 5.097 13.643 3.896.426-3.029 1.637-5.097 2.975-6.269-10.408-1.184-21.352-5.209-21.352-23.184 0-5.12 1.828-9.309 4.826-12.586-.483-1.187-2.092-5.958.461-12.414 0 0 3.933-1.262 12.889 4.809 3.738-1.043 7.749-1.561 11.734-1.581 3.983.02 7.992.538 11.735 1.581 8.95-6.071 12.878-4.809 12.878-4.809 2.558 6.456.949 11.227.469 12.414 3.004 3.277 4.817 7.466 4.817 12.586 0 18.021-10.961 21.986-21.401 23.147 1.681 1.448 3.18 4.31 3.18 8.687 0 6.269-.058 11.329-.058 12.866 0 1.256.846 2.716 3.223 2.258C80.332 85.196 93.75 67.627 93.75 46.909 93.75 21.001 72.761 0 46.871 0"/>
</svg>
