<svg xmlns="http://www.w3.org/2000/svg" fill-rule="evenodd" stroke-linejoin="round" stroke-miterlimit="1.414" clip-rule="evenodd" viewBox="0 0 94 107">
  <g fill-rule="nonzero">
    <path fill="#e6a32a" d="M93.75 0H0l8.785 95.66 38.091 10.84 38.075-10.84L93.75 0z"/>
    <path fill="#f1bf22" d="M46.875 7.793v90.606l30.845-8.777 7.511-81.829H46.875z"/>
    <path fill="#fff" d="M71.415 19.531H23.973l-3.298 35.817.07-.224h40.3L59.73 70.275l-12.855 3.719-13.051-3.775-.784-9.17H21.192l1.694 18.324 23.989 6.838 23.99-6.838 3.301-35.959H31.404l.545-11.991h29.682l.436 6.863h11.954l-2.606-18.755z"/>
    <path fill="#ebebec" d="M33.041 61.049H21.193l1.692 18.324 23.99 6.822v-12.2l-13.051-3.776-.783-9.17zm13.834-41.518H23.972l-3.297 35.817.071-.224h26.129v-11.71H33.053l.545-11.991h13.277V19.531z"/>
  </g>
</svg>
