<svg viewBox="0 0 339 45" fill="none" xmlns="http://www.w3.org/2000/svg">
<g clip-path="url(#clip0_108_96)">
<path d="M20.2205 40.6052C31.2875 40.6052 40.2591 31.6336 40.2591 20.5666C40.2591 9.49954 31.2875 0.527954 20.2205 0.527954C9.15347 0.527954 0.181885 9.49954 0.181885 20.5666C0.181885 31.6336 9.15347 40.6052 20.2205 40.6052Z" fill="#000F5A"/>
<path d="M32.0271 17.9111C30.6461 16.8359 29.1756 15.7888 27.7127 14.8147L28.4804 14.7556L28.6431 14.1815L29.0354 13.9221L29.331 14.1124L29.5032 13.9923L29.667 12.0656L29.7574 11.7177C30.7528 11.8897 31.6817 12.088 32.5438 12.306L32.5367 12.3464L32.8652 13.1811L32.942 13.3073C32.9463 13.4265 32.949 13.546 32.949 13.6661C32.949 14.3247 32.8852 14.9816 32.7584 15.6278L32.5867 15.366L32.3028 16.5674L32.4237 16.899C32.309 17.243 32.1766 17.5808 32.0271 17.9111V17.9111ZM26.6931 14.1124L26.6027 13.8743L26.4438 13.9863C26.52 14.035 26.5962 14.084 26.6725 14.1333L26.6931 14.1124ZM33.3564 22.8628L32.5367 22.0781L32.138 22.7001L31.8902 22.5959L31.5595 20.0452L32.317 18.834L32.215 18.7521C31.1789 20.6733 29.6551 22.2878 27.7968 23.433C28.1619 24.1761 28.5156 24.915 28.8533 25.6431C28.8858 25.7131 28.9195 25.7864 28.9531 25.8593L29.1397 25.5784L29.7874 25.3485L30.1253 25.2286L30.6088 25.6333L31.078 26.026L31.1213 26.0049L31.5362 25.8027L32.1848 26.0483L32.3055 25.9348L32.5229 25.7304L32.7936 25.1972L32.9099 24.968L32.9881 25.5685L33.1013 26.4385L32.8839 26.6963L32.6665 26.9542L32.7981 27.1965L32.9929 27.5549L32.9899 27.558L32.879 27.6719L33.0046 27.8474L33.0067 27.8438L33.7721 26.5545L33.9582 24.9075L33.8763 23.841L33.3564 22.8628ZM33.4999 17.4362L34.1347 18.3516L35.2522 19.0214L35.1107 17.788L34.4302 16.4367L33.4532 15.7668L33.364 15.2933C33.3141 15.6188 33.2498 15.9399 33.1711 16.2566L33.2522 16.3802L33.4999 17.4362ZM31.4518 11.4807L31.4234 11.4523L31.4076 11.2651L31.6797 10.5825L31.5595 10.3379L31.1948 10.2794L31.0917 9.99768L30.6229 10.0913L30.6569 10.5143L30.0084 11.2003C30.5007 11.2867 30.9819 11.3801 31.4518 11.4807H31.4518ZM31.7843 18.4124C30.4076 17.3357 28.8632 16.2304 27.2749 15.1747L26.7304 15.6286L26.9854 16.4728L26.5772 16.8353L25.7202 16.896L25.4757 16.6738L24.9569 16.7205L24.8516 17.1426L24.4893 17.1616C25.5484 19.0404 26.5911 21.0044 27.5571 22.9479C29.3436 21.8379 30.8026 20.2725 31.7842 18.4124H31.7843ZM25.9563 15.1565L26.0031 14.9332L26.2987 14.5898L26.216 14.4832C26.1316 14.4289 26.047 14.3747 25.9624 14.3206L25.6044 14.4399L25.3566 14.8152L25.5556 15.1076L25.9563 15.1565ZM34.7801 23.4732L34.4165 23.4285L34.2177 22.8628L34.5132 22.6055L33.9582 22.3238L33.6648 22.1239L33.4181 21.8198L33.1226 21.5965L32.9247 21.4552L32.8908 21.5828L33.0651 21.6561L33.0417 21.9963L33.3564 22.428L33.6893 22.6055L33.9816 23.016L34.0976 23.2882L34.3431 23.5795L34.5229 23.8868L34.7121 24.075L34.6759 23.6997L34.9194 23.6731L34.7801 23.4732ZM21.6895 15.3319L21.3727 15.1076L21.2292 15.1661L21.1749 15.8359L21.714 15.5329L21.6895 15.3319ZM32.4631 18.254C32.5115 18.2924 32.5594 18.3308 32.6075 18.3693L32.8301 18.0134L32.71 17.6839C32.6328 17.8762 32.5505 18.0663 32.4631 18.254ZM26.5187 15.5094L26.8632 15.1661L26.7537 15.0959L26.4974 15.1203L26.4209 15.2702L26.4974 15.5094H26.5187ZM28.9717 11.031C29.058 11.044 29.1432 11.0578 29.2289 11.0712L29.1864 10.8684L29.0684 10.7004L29.0121 10.6887L28.9057 10.8557L28.9164 10.9725L28.9717 11.031ZM23.8882 17.1932L23.3137 17.2234L23.0993 16.8353V16.3888L22.5943 16.1209L22.2658 16.2144L21.7139 15.853L21.2291 16.5866L20.4904 16.9654V25.0282C22.808 24.994 25.0794 24.3746 27.0936 23.2275C26.0864 21.1989 24.9948 19.1464 23.8882 17.1932L23.8882 17.1932ZM20.9368 15.451L21.1376 15.3586L21.0803 14.9098L20.6166 14.2389L20.4904 14.4092V15.1806L20.6443 15.3319L20.9368 15.451ZM17.0378 13.6509L17.1654 13.6637L17.2335 13.6169L17.2228 13.4607L17.0739 13.4414L16.9794 13.3703L16.8018 13.3341L16.7668 13.6881H16.8943L17.0378 13.6509ZM12.8757 22.9446C13.5408 21.6317 14.2599 20.2741 15.0221 18.8932L14.3648 19.1532L13.9417 18.6354L12.7721 18.5631L12.7477 18.0591L12.5031 17.5881L11.7493 18.3271L10.8902 18.5526L10.1769 18.3271L10.1236 17.8136L10.6202 17.3191L11.0412 17.821L11.9247 17.4244L11.8528 15.9437C10.694 16.7424 9.60969 17.5448 8.61439 18.3369C9.59434 20.2283 11.0665 21.8202 12.8757 22.9446L12.8757 22.9446ZM11.2411 15.4511L10.4649 16.1209L10.3123 16.3619L10.2659 16.4353C10.6694 16.1415 11.0814 15.8488 11.5018 15.5573L11.2411 15.4511ZM19.6098 17.6594L18.7878 17.9879L18.7167 18.527L18.2212 18.6003L17.9309 18.2229L17.0739 17.9752L16.3765 18.7067L16.1202 19.4689L15.5569 19.0731C14.7844 20.4728 14.0419 21.8702 13.3498 23.2307C15.3636 24.3763 17.6342 24.9946 19.9507 25.0283V17.2423L19.7862 17.3267L19.6098 17.6594ZM11.4743 27.0981L11.643 27.1561L11.7823 27.0041L11.6328 26.7542C11.579 26.87 11.5267 26.984 11.4742 27.0981H11.4743ZM28.894 27.0337C28.7238 26.6537 28.5471 26.2658 28.3638 25.8701C28.0338 25.1588 27.6888 24.4373 27.3326 23.7115C25.2439 24.8951 22.8908 25.5335 20.4904 25.5678V29.5305L20.7115 29.4117L20.8687 29.3273L21.3679 29.4146L21.477 29.4337L21.524 29.4733L21.6991 29.6208L22.4785 29.6686L22.6354 29.4763L22.757 29.3273L22.6705 29.1913L22.6081 29.0934L22.8803 28.5894L23.8872 28.751L24.0043 29.0593L24.3763 29.1252L24.4614 29.1402L25.256 28.8472L25.4247 28.785L25.9893 29.0444L26.6601 28.8701L26.8962 28.6585L27.4505 28.3109L27.9658 27.9876L28.5493 27.8L28.657 27.7654L28.686 27.7199L28.9418 27.3188L28.8696 27.1445L28.894 27.0337ZM8.18628 18.6812C7.62878 19.1347 7.10142 19.5832 6.60419 20.0266L6.4873 20.3951L6.05878 20.8778L6.36462 21.2492L6.37671 21.2638L6.16724 21.688L6.1784 22.1238L6.17895 22.1473L6.2832 22.5482L6.4342 22.9575L6.6542 23.3968L6.71695 23.5221L6.60532 23.5977L6.47238 23.6879L6.12045 23.7592L5.98111 23.7103L5.88443 23.8304L5.72073 24.0877L5.28049 23.8751L5.11496 23.2934L5.09653 23.2286L4.98806 22.949L4.81206 22.9056L4.64049 22.8632L4.64006 22.863L4.63939 22.8628L4.72979 23.2287L4.61279 23.2882L4.65961 23.4859L5.18906 23.923L5.43674 24.7438L5.53146 25.2967L5.53646 25.3041L5.96419 25.9548L6.17897 26.5183L6.33097 26.614L6.74351 27.706L6.79374 27.7771L6.83604 27.8367L6.92259 27.833L7.10716 27.8251L7.09348 27.7287L7.093 27.7254L7.02207 27.2244L7.14219 27.0468L7.08166 26.5545L7.46766 26.4598L7.71851 26.614L7.91951 26.5183L7.91957 26.5171L7.92006 26.5099L7.94075 26.2142L7.92397 25.9369L7.91951 25.8622L7.81264 25.7698L7.75364 25.7188L7.69519 25.321L7.96204 25.1913L8.42029 25.2625L8.52606 25.1211L8.5968 25.0265L8.60388 25.0266L9.25598 25.0403L9.61108 25.321L10.1948 26.3216L10.4474 26.3377L10.5265 26.3428L10.9253 26.5906L11.0312 26.7699C11.5176 25.7027 12.0534 24.5838 12.6325 23.4275C10.7549 22.2687 9.2201 20.6304 8.18628 18.6812ZM5.73138 18.1889L5.7442 18.1788L5.88446 18.0687L5.87268 17.6455L5.68036 17.4L5.56274 17.4344L5.55621 17.4364L5.53149 17.4436V17.7597L5.61255 17.9338L5.73138 18.1889ZM8.51233 17.7615L8.34133 17.7527C8.35665 17.7882 8.37148 17.8239 8.38723 17.8591C8.4284 17.8266 8.47095 17.7941 8.51233 17.7615V17.7615ZM11.8594 26.269C11.8369 26.3168 11.8154 26.3634 11.7932 26.4109L12.0768 26.3344L12.1058 26.1967L12.1714 25.8846L13.1709 26.2142L14.0417 26.2961L14.2053 26.2435L14.3297 26.2035L14.7773 26.4735L15.5791 27.4933L16.2351 27.3646L16.4103 27.727L17.0474 29.0445L17.6353 29.1635L18.0936 29.105H18.0936L18.4162 29.4443L18.7284 29.7728L19.1494 29.7398L19.3057 30.011L19.7757 29.9142L19.9507 29.8202V25.5678C17.5495 25.5341 15.1957 24.8958 13.1064 23.712C12.6674 24.5844 12.2496 25.4402 11.8594 26.269V26.269ZM7.81634 17.8972L7.77167 17.9216L7.45697 18.0943L7.25104 18.3436L6.74988 18.9502L6.74621 19.1832L6.74573 19.214C7.13409 18.8795 7.53658 18.5436 7.95318 18.2062C7.906 18.1039 7.86039 18.0009 7.81634 17.8972V17.8972ZM9.79278 16.7596L9.77278 16.7673L9.67906 16.868C9.73893 16.8233 9.79966 16.7787 9.86006 16.734L9.79278 16.7596ZM17.5652 16.307L17.6949 16.19V15.9784L17.4589 15.9539L17.3255 15.9569C17.2448 16.0951 17.1644 16.2336 17.0843 16.3725L17.5652 16.307ZM14.9763 18.1761L14.9315 17.6594L15.1305 17.2947L16.0225 16.6738L16.3484 16.5429C16.4536 16.3607 16.5596 16.1782 16.6664 15.9955L15.9098 16.1442L15.8152 16.3548L15.2963 16.5558L14.5573 17.1054L14.4032 17.3447L14.4617 17.821L14.9763 18.1761Z" fill="#FF331C"/>
<path d="M22.405 5.78723L22.5347 6.01587L22.2743 6.24451L22.0765 6.32843L21.867 6.09131L22.118 5.81708L22.405 5.78723ZM4.63932 22.8628L4.64054 22.8632L4.64042 22.8628H4.63932ZM14.3446 12.2454L14.3466 12.6877L14.7675 12.873L15.1037 12.5905L15.7938 12.4963L15.9416 11.9349L15.1505 11.2119L14.1054 11.8147L13.829 12.1793L13.9267 12.3538L14.3446 12.2454ZM31.6956 10.2752L31.9423 10.3358L31.9901 10.2379L31.9583 10.0253L32.0019 9.87866L31.852 9.68823L31.718 9.64575L31.7361 9.88075L31.6691 10.0232L31.6956 10.2752ZM2.05888 17.5605L2.31944 17.216L2.40019 16.8004H2.26419L2.13334 16.71L1.94511 17.0959L1.75163 17.3139L1.71018 17.5084L1.7559 17.8402L2.05888 17.5605ZM34.1038 30.8011L34.93 29.0712L35.181 28.9478L35.4 28.2981L35.9773 27.3561L35.942 26.6121L35.7816 26.4142L35.8264 25.9069L35.3468 25.4221L35.2682 25.1287L35.6509 24.9076L35.8349 23.9081L35.4893 23.5605L35.1406 24.1568L34.6908 24.1706L34.9842 24.9649L34.8024 25.2361L34.8439 25.6157L35.3298 26.3652L35.1108 27.6454L34.912 27.7124L34.862 28.4301L34.173 29.2084L33.486 30.5767L33.8486 30.8574L34.1038 30.8011ZM9.63664 7.69049L9.05815 8.44965L9.07847 9.10455L9.31761 9.34055L9.88861 9.16727L10.1715 8.42827L10.0949 8.20067L10.4341 8.00298L10.5222 7.71698L10.1619 7.44159L9.63664 7.69049ZM21.5778 5.3418L21.6692 4.99194L21.3493 4.74213L21.1434 4.79529L20.9591 5.18341L21.0881 5.38965L21.2961 5.41565L21.5778 5.3418ZM29.768 3.90955L29.851 3.80646L29.786 3.715L29.7159 3.53647L29.4851 3.32809L29.3554 3.60715L29.6404 3.90958L29.768 3.90955ZM21.1304 5.68848L21.1285 6.06793L21.5513 6.3465L21.7373 5.93713L21.3089 5.72559L21.1304 5.68848ZM39.404 26.9615L39.4056 27.022L39.3841 27.0225C38.0546 30.9411 35.5596 34.36 32.2333 36.8215L32.229 36.834L32.2203 36.831C28.7286 39.4139 24.4968 40.8012 20.1536 40.7869C15.8104 40.7727 11.5878 39.3575 8.11314 36.7518L8.10063 36.7553L8.09593 36.7386C4.73557 34.2159 2.24085 30.7126 0.955971 26.712L0.935971 26.7087L0.942441 26.6705C-0.227998 22.9704 -0.309988 19.0118 0.706241 15.2663L0.690431 15.253L0.719061 15.2191C0.883854 14.6188 1.07519 14.0301 1.29306 13.4528C1.30484 13.4152 1.31606 13.3775 1.32806 13.3399L1.35675 13.2505L1.36865 13.2542C2.34926 10.74 3.82203 8.44686 5.7006 6.50934L5.69204 6.48389L5.74178 6.46716C7.63354 4.5197 9.89871 2.97387 12.4018 1.92215C14.9048 0.870435 17.5943 0.334448 20.3093 0.34626C23.0243 0.358073 25.709 0.917443 28.2028 1.9909C30.6966 3.06436 32.9482 4.62985 34.823 6.59369L34.8751 6.61346L34.8657 6.63824C36.6801 8.54342 38.1062 10.7836 39.0645 13.2338L39.0745 13.2305L39.1034 13.3201C39.1125 13.3485 39.121 13.3771 39.13 13.4056C39.3659 14.0265 39.5714 14.6613 39.7467 15.3099L39.7783 15.3517L39.7614 15.3644C40.7765 19.1822 40.6522 23.2135 39.404 26.9615H39.404ZM13.9485 2.47968C14.1142 2.61481 14.2879 2.76756 14.4695 2.93793C14.7463 2.81805 15.0284 2.70697 15.3158 2.60468L15.3132 2.58051L15.4864 2.54456C15.8044 2.4353 16.128 2.33687 16.4573 2.24927L16.3966 2.24243L16.0246 2.32855L15.7651 2.07977L15.1175 2.4115L15.0209 2.56567L14.3063 2.47522L13.9485 2.47968ZM17.8278 8.389L17.7747 8.607L17.3959 9.091C18.0806 9.39117 18.7587 9.70245 19.4197 10.02C18.8887 9.25053 18.3954 8.5557 17.9366 7.9271L17.898 7.96586L17.7714 8.06266L17.8278 8.389ZM8.51695 15.7573L8.81474 15.7669L9.49211 15.9572L9.66856 15.567L9.48991 15.3798H9.20491L8.98286 15.4942L8.16186 15.2873L7.65786 15.4298L7.64663 15.4496C7.69149 15.7024 7.74559 15.9523 7.80892 16.1993L7.96401 16.1188L8.26491 15.805L8.51695 15.7573ZM8.34135 17.7527C8.35667 17.7881 8.3715 17.8239 8.38725 17.8591C8.42838 17.8266 8.47093 17.7941 8.51231 17.7615L8.34135 17.7527ZM7.77165 17.9216L7.45695 18.0943L6.74986 18.9502L6.74571 19.2139C7.13407 18.8795 7.53655 18.5435 7.95316 18.2062C7.76417 17.7963 7.60049 17.3753 7.46304 16.9454L7.37936 16.8885L7.41446 16.7901C7.34113 16.5487 7.27613 16.3044 7.21946 16.0572L6.80955 16.1103L6.68833 15.9454L6.17899 16.1964L5.75799 15.9731L5.45799 15.1775L5.62899 14.9951L5.85512 14.2665L5.99404 14.3177L6.03115 14.5112L6.27144 14.7248L6.51393 14.5568L6.18858 13.871L6.35435 13.4606L6.73289 13.2246L6.96446 13.1108C6.97502 12.909 6.99099 12.7085 7.01237 12.5093C6.26217 12.7204 5.52361 12.9709 4.79978 13.2598L4.74461 13.4702L4.4597 13.4968L4.31407 13.6659L4.35331 14.0061L4.7819 14.0539L5.25395 15.1427L5.11995 15.4808L5.21456 16.3218L5.60156 16.8514V17.1618L5.5462 17.2278L5.56268 17.4345L5.53143 17.4436V17.7597L5.73132 18.189L5.8844 18.0688L5.87262 17.6456L5.83582 17.5986L5.83704 17.5978L6.10352 17.3995L6.33087 17.1788L6.57764 17.1288L6.75635 17.2238L6.6817 17.4822L6.95398 17.5446L7.03058 17.2618L7.27618 17.0608L7.66846 17.534L7.70361 17.7966L7.77165 17.9216ZM12.115 14.7917L12.0713 15.1664C14.3207 13.6427 16.6565 12.2506 19.0668 10.997C15.196 10.9985 11.3388 11.4545 7.57432 12.3556C7.55381 12.5144 7.53806 12.6745 7.52482 12.8352L7.57182 12.8121L7.85246 12.9312L8.17466 13.2862L8.57975 13.4766L9.98539 13.6053L11.0188 13.8764L11.8024 14.3208L12.115 14.7917ZM11.241 15.451L10.4648 16.1209L10.2658 16.4353C10.6693 16.1415 11.0812 15.8488 11.5017 15.5573L11.241 15.451ZM9.77268 16.7673L9.67887 16.8681C9.73881 16.8234 9.7996 16.7787 9.86003 16.734L9.77268 16.7673ZM8.61436 18.3369C9.5943 20.2283 11.0665 21.8201 12.8757 22.9446C14.7267 19.2909 16.9905 15.2929 19.4614 11.3996C15.6302 13.3563 11.9975 15.6796 8.61436 18.3369V18.3369ZM16.5308 9.30237L16.4191 9.46393L15.9747 9.68193L15.6195 9.28318L14.5807 8.89618L14.1639 8.96735L13.9427 8.76221L13.5163 8.63672L13.0815 8.72186L12.6689 8.28168L11.7046 8.19757L11.5463 7.4892C10.9646 7.32153 10.4006 7.17767 9.86308 7.0642C8.75197 8.43296 7.99659 10.0553 7.66422 11.7866C11.4092 10.9187 15.2396 10.4727 19.0838 10.457C18.2513 10.0584 17.3935 9.6698 16.5308 9.30237ZM11.5685 6.35828L11.6313 5.97864L11.5903 5.31864C11.1099 5.71408 10.6607 6.14596 10.2467 6.61045C10.6952 6.71116 11.1599 6.83201 11.6344 6.96684L11.6696 6.88346L11.5685 6.35828ZM15.9391 5.335C15.3251 4.59086 14.8039 4.0167 14.3619 3.57774C14.0479 3.72361 13.7419 3.88075 13.4439 4.04917L13.6653 4.12017L14.081 4.13292L14.35 4.27434L14.4924 4.60717L14.938 4.62304L15.2176 4.96221L15.5611 4.93987L15.7556 5.25036L15.9391 5.335ZM6.71433 6.26524C7.69614 6.20184 8.68198 6.27563 9.64341 6.48448C10.1428 5.89533 10.6954 5.35335 11.294 4.86536L11.0996 4.63464L11.3803 4.39124L11.7812 4.2796L12.1246 4.04028L12.4487 4.02216C12.9286 3.71019 13.4277 3.42879 13.943 3.17963C13.6989 2.9541 13.4376 2.74793 13.1615 2.56299L13.0019 2.62512L12.6266 2.66345L12.2968 2.75806L12.08 2.70923L11.963 2.77509L11.6955 2.83246C9.86873 3.71424 8.18866 4.87205 6.71433 6.2652V6.26524ZM2.05515 13.0003L2.15721 13.0289L2.18644 12.7855L2.43418 12.3623L2.68626 12.1114L2.89036 12.0125L3.23802 11.6265L3.23484 12.1294L2.86894 13.5606C3.00828 13.4841 3.15483 13.4083 3.30515 13.333L3.54954 12.9183L3.7208 12.4729L4.00993 12.2964L3.97801 12.7057L4.1981 12.6844L4.1811 12.4761L4.2577 12.2188L4.21095 12.0816L4.3545 11.8243L4.61598 11.9286L4.80198 11.7425L4.93388 11.8339L5.11788 12.1401L5.33901 11.9286L5.32314 11.516L5.12105 11.6254L4.87337 11.517L4.83931 11.1162L5.00521 10.7037L5.23055 10.8068L5.50435 10.6611L5.71321 10.876L5.82705 11.0364L5.75374 11.2438L5.93233 11.2842L6.1205 11.1258L6.4575 11.1013L6.72965 11.2215L6.62657 11.7499L6.34165 11.635L6.30125 12.0317L5.9907 12.0794L5.70689 12.2327L5.53178 12.4143C6.01731 12.2482 6.53507 12.0883 7.09001 11.9369C7.39373 10.12 8.14243 8.40655 9.26933 6.94934C8.2048 6.7056 7.0993 6.70252 6.03343 6.94034C4.34462 8.69743 2.99579 10.7521 2.05515 13.0003V13.0003ZM2.07475 24.1689C2.24027 23.9243 2.42215 23.6741 2.6204 23.4183L2.79472 22.7438L2.51402 22.1611L2.15464 22.445L2.00572 21.706L2.26103 20.7119L2.60386 20.2039L2.73374 19.4438L2.83286 18.275L2.92228 18.0028L2.90519 17.754L2.75639 17.7126L2.69254 18.074L2.55332 18.36L2.45017 19.2754L2.40446 19.706L2.36723 20.0633L2.16197 20.2132L1.79097 19.8782L1.55064 19.872L1.5698 19.3063L1.59324 18.7545L1.77287 18.6387L1.80587 19.099L2.05575 19.0841L2.20775 17.9625L2.59087 17.0921L2.62359 16.6047L2.39269 16.158L2.46404 15.5499L2.43322 15.2915L2.26836 15.4617L2.14299 15.1905L2.15465 14.9449H1.83781L1.61662 15.3053L1.56022 17.502L1.61338 18.2132L1.47104 18.5249L1.43912 18.6811L1.22653 18.796L1.19559 19.1021L1.22859 20.5621L1.1891 20.8292C1.24373 21.2392 1.31339 21.6448 1.3981 22.0458L1.6071 22.1973L1.77935 22.8628L1.9229 23.6401L2.07475 24.1689ZM3.03704 25.3657V24.9936L3.32494 25.2576L3.3922 25.5326L3.7082 25.8097L3.75269 25.5889L3.12315 24.731L3.0084 24.4747L2.79472 24.2621L2.75596 24.127C2.57658 24.3756 2.4148 24.6168 2.27061 24.8505L2.32151 25.0276L2.64372 25.5273L2.91697 26.2397L3.10081 26.5406L3.61863 26.3332L3.7335 25.9782L3.41343 25.8857L3.10197 25.5624L3.03704 25.3657ZM5.96416 25.9548L6.17894 26.5183L6.33094 26.614L6.74348 27.7059L6.83607 27.8367L7.10719 27.8251L7.09304 27.7253L7.15504 27.7729L7.36237 28.5107L6.83607 28.7947L6.80952 29.119L7.15711 29.6836L7.89716 30.2779L8.03541 29.8239L7.86414 29.5453L7.8429 29.2497L8.00874 29.0275L8.00562 28.7607L8.00874 28.6395L8.01832 28.6384L8.14173 28.4949V28.3949L7.89399 28.0547L7.91633 27.6719L8.1247 27.4858L8.23426 27.2731L8.67115 27.6081L8.81263 27.3891L8.85945 27.1913L8.62019 27.0223L8.46919 26.7926L8.14804 26.7065L7.91952 26.5171L7.9407 26.2142L7.91946 25.8622L7.75363 25.7187L7.69517 25.321L7.96202 25.1914L8.42027 25.2625L8.59678 25.0264L9.25596 25.0403L9.61106 25.321L10.1948 26.3216L10.5265 26.3428L10.9253 26.5906L11.0312 26.7699C11.5176 25.7027 12.0534 24.5838 12.6324 23.4275C10.7548 22.2687 9.22008 20.6303 8.18626 18.6811C7.62876 19.1347 7.1014 19.5831 6.60417 20.0266L6.48728 20.395L6.05876 20.8778L6.37669 21.2638L6.16722 21.688L6.17893 22.1473L6.28318 22.5481L6.43418 22.9574L6.71696 23.5221L6.47239 23.6879L6.12046 23.7592L5.98112 23.7103L5.90946 23.7994L5.69511 23.7135L5.51341 23.6423L5.36241 23.4157L5.20933 23.3402L5.15306 23.4272L5.09654 23.2286L4.98804 22.949L4.81204 22.9056L4.66496 22.411L4.62443 22.1696L4.39579 22.1646C4.1132 22.4659 3.84955 22.7608 3.60484 23.0493L3.75578 23.521L4.24601 23.9442L4.89884 25.5124L5.27732 26.0037L5.61973 25.8835L5.48466 25.4763L5.53642 25.3041L5.96416 25.9548ZM11.6327 26.7542C11.579 26.87 11.5267 26.984 11.4742 27.0981L11.6429 27.1562L11.7823 27.0042L11.6327 26.7542ZM8.14012 34.7556L8.08854 34.7254L7.96204 34.7127L7.76953 34.5712L7.53353 34.4904L7.09017 34.1544L6.70644 34.2034L6.53844 34.3129C6.40144 34.3303 6.26239 34.3226 6.12816 34.2901C6.71582 34.8935 7.34129 35.4589 8.00078 35.9829C8.01088 35.5705 8.05751 35.1598 8.14012 34.7556ZM8.38401 33.7031L8.21556 33.5068L8.20463 33.1948C8.15916 33.1621 8.1143 33.1287 8.06913 33.0956L7.88169 33.0336L6.90409 32.2651L6.64036 31.9695L6.62388 31.929C6.47655 31.798 6.3313 31.6649 6.18815 31.5297L6.35331 31.8261L6.33848 32.0334L6.62657 32.1928L6.72965 32.6362L7.33152 33.1731L7.95133 33.289L8.18955 33.8238L8.322 33.9413C8.34171 33.8632 8.36253 33.7836 8.38404 33.7031H8.38401ZM19.9507 38.1601L19.7512 38.1682L19.0368 38.1649L18.7911 38.3532L17.1665 38.6221L16.3711 38.5946L16.4923 38.8295L16.874 39.0613L17.1739 39.1698L17.0273 39.2706L16.3212 39.1389L16.2043 38.9741L15.0771 38.7849L13.7768 37.8991L13.4759 37.4079L13.4228 37.1112L12.6393 36.8965L12.2245 36.4138L11.5632 35.9502L11.2208 35.5112L10.5967 35.2453L8.8018 34.106C8.78367 34.1789 8.76642 34.2505 8.75004 34.321L8.75404 34.3246L8.97204 34.6245L9.10497 34.7296V34.8392L8.93902 34.8732L8.63238 34.8899C8.51974 35.3918 8.49907 35.9099 8.57138 36.4192C11.8702 38.8546 15.8506 40.1925 19.9507 40.244V38.1601ZM19.9507 25.5678C17.5496 25.534 15.1957 24.8958 13.1064 23.712C12.6674 24.5844 12.2496 25.4401 11.8594 26.269C11.8369 26.3168 11.8154 26.3634 11.7931 26.4109L12.0768 26.3343L12.1714 25.8845L13.1709 26.2142L14.0417 26.2961L14.3297 26.2035L14.7772 26.4735L15.5791 27.4933L16.235 27.3646L17.0474 29.0445L17.6353 29.1635L18.0936 29.105L18.7284 29.7728L19.1494 29.7398L19.3056 30.011L19.7756 29.9142L19.9506 29.8202L19.9507 25.5678ZM19.9507 11.6359C17.6413 15.2789 15.2979 19.4008 13.3498 23.2307C15.3636 24.3762 17.6342 24.9945 19.9507 25.0282V11.6359ZM19.9507 7.27907L19.9118 7.34701L19.6715 7.50216L18.7911 7.7286L18.3711 7.54793L18.3751 7.48672L18.3214 7.54072C18.8368 8.24491 19.3799 9.01133 19.9507 9.84V7.27907ZM19.9507 4.40267L19.6932 4.4396L19.5258 4.35079L19.0368 4.40816L18.9293 4.54421L18.3126 4.43484L17.9044 4.15725L17.6482 4.19771L17.411 4.0744L17.0304 4.08606L16.4764 3.83942L15.6981 3.6438L15.4196 3.74908L15.3185 3.53644L15.4546 3.15784L15.4422 3.13251C15.2551 3.20038 15.0701 3.27198 14.8874 3.34729C15.5621 4.04746 16.2012 4.7812 16.802 5.54572L17.0484 5.68408L17.7959 5.37372L18.3425 5.61499L18.816 5.78599L18.8039 5.55119L18.7974 5.38432L19.0677 5.14115L18.9538 4.97068L18.874 4.808L19.1495 4.59L19.6651 4.53262L19.9508 4.54654L19.9507 4.40267ZM18.6316 2.83038L18.8177 2.42957L18.6969 2.38312C18.4975 2.40445 18.2996 2.42992 18.1031 2.45953L18.0138 2.64429L17.428 2.77722L17.4164 2.95056L17.6087 3.13763L17.7481 2.96222L17.9639 2.89838L18.0841 3.04517L18.0553 3.23328L18.2233 3.30353L18.0905 3.41516L18.2127 3.48425L18.5094 3.4577L18.6752 3.18335L18.6316 2.83038ZM19.9507 3.05469L19.8172 2.95587L19.597 2.98987L19.5056 3.17059L19.5268 3.40559L19.9507 3.46577V3.05469ZM19.9507 1.17676L19.0037 1.05481L18.3073 1.09412L18.1955 0.991C18.021 1.00882 17.8472 1.02957 17.6739 1.052L17.7622 1.1673L17.4621 1.2153L17.4089 1.44601L17.6258 1.5278L17.5949 1.73L17.793 1.96132C18.5065 1.84296 19.2276 1.7772 19.9507 1.76455V1.17676ZM33.429 12.5424C33.6358 14.4988 33.3016 16.4744 32.463 18.254C34.7419 19.9425 36.7483 21.9706 38.4122 24.2674C39.4383 21.4081 39.6666 18.3235 39.0725 15.3443C38.1296 14.3281 36.1856 13.3283 33.429 12.5424ZM31.4765 31.1317L31.241 31.3474C31.2856 31.4713 31.3295 31.5947 31.3725 31.7176C31.515 32.1258 31.6405 32.5101 31.7524 32.8749C34.6156 30.8877 36.8447 28.1167 38.1725 24.8944C37.3381 23.4476 35.6025 21.453 32.2149 18.7521C31.1788 20.6733 29.655 22.2878 27.7967 23.433C28.1618 24.1761 28.5155 24.915 28.8532 25.6431C28.8857 25.7131 28.9194 25.7864 28.953 25.8593L29.1396 25.5784L30.1252 25.2286L31.0779 26.026L31.5361 25.8027L32.1847 26.0483L32.5229 25.7304L32.9098 24.968L33.1012 26.4385L32.6664 26.9542L32.9928 27.5549L32.879 27.6719L33.0045 27.8475L33.0107 27.8372L32.9598 27.9441L32.8822 28.2642L32.9917 28.4842L32.56 29.2849L32.6398 29.3614L33.2192 29.507L33.4797 29.96L33.4021 30.2215L33.0077 30.7585L32.7025 31.0541L32.5813 30.8616V30.6374L32.3453 30.4396L32.2411 30.2928L32.1113 30.4608L31.836 30.4203L31.9051 30.0801L31.6329 29.9706L31.13 30.5917L31.0089 30.7187C31.0513 30.8313 31.0932 30.9438 31.1345 31.056L31.3128 30.9447L31.4765 31.1317ZM30.8531 31.8794L30.6941 32.0715L30.9067 32.2045L30.9761 32.238C30.9364 32.1203 30.8954 32.0008 30.853 31.8794H30.8531ZM30.4454 30.7603L30.3304 30.8404L30.1975 31.1541L29.8987 31.3433L29.9657 31.5804L30.2581 31.473L30.5069 31.5527L30.6555 31.3249C30.5881 31.1404 30.5181 30.9522 30.4454 30.7603ZM21.0215 11.428C23.4167 15.1409 25.5988 18.9871 27.557 22.9479C29.3436 21.8379 30.8025 20.2725 31.7842 18.4124C28.3964 15.7901 24.7964 13.4539 21.0215 11.428V11.428ZM32.027 17.9111C32.8154 16.1842 33.1066 14.2717 32.868 12.3884C29.0959 11.4603 25.2257 10.9898 21.341 10.9873C25.0852 13.0012 28.659 15.3168 32.027 17.9111V17.9111ZM34.5185 7.0567C33.7046 6.81773 32.8497 6.75232 32.009 6.8647L32.4771 7.2067L32.543 7.5937L32.7078 7.65113L33.1777 8.04139L34.0018 9.01844L34.2707 9.44795L34.1495 9.53938L32.6132 7.95844L32.5525 8.22101L32.7556 8.52625L32.8535 8.72815L32.5644 8.72388L32.6547 8.97058L32.5547 9.13751L32.8439 9.40326L32.7402 9.72748C33.0214 10.4428 33.2256 11.1861 33.3493 11.9447C35.3268 12.4139 37.1973 13.2543 38.8614 14.4212C38.7884 14.1396 38.7078 13.8599 38.6197 13.582C37.695 11.1583 36.3013 8.94093 34.5185 7.0567V7.0567ZM29.3331 3.19824L29.0525 3.14514L29.2778 4.05737L29.2045 4.16895L29.5883 4.48578L29.8307 5.01208L30.0954 5.40985L30.323 5.6214L30.5196 6.12115L30.6834 6.25079L30.8503 6.19122L30.9587 6.31567L31.0177 6.44104C31.9375 6.27109 32.8772 6.23722 33.8068 6.34052C32.4688 5.06193 30.9579 3.9776 29.3183 3.11932L29.3331 3.19824ZM31.4317 6.931L31.7487 7.02274L31.8848 6.97916L31.9177 6.87363C31.7624 6.889 31.6008 6.90771 31.4317 6.931ZM27.9437 7.76267C25.6953 8.50522 23.5011 9.40252 21.3767 10.4481C25.2154 10.4498 29.0408 10.9006 32.7748 11.7914C32.6126 10.9269 32.3411 10.0865 31.9668 9.29041L31.5201 9.05774L31.4149 8.79517L31.2161 8.658L31.0715 8.81L31.2096 9.05451L31.2246 9.32672L30.9089 9.62972L30.3092 8.97591L30.1635 8.86953L29.8657 9.3608L29.5565 9.23208L29.4342 8.97902L29.215 8.83124L29.0067 8.80365L28.3613 8.31451L28.3294 8.20831L28.0189 8.04767L27.9437 7.76267ZM24.3157 4.30084L24.371 4.591C24.4697 4.47723 24.5672 4.36647 24.6636 4.25873L24.405 4.09673L24.3157 4.30084ZM24.1634 5.67517C23.1767 6.88458 22.0946 8.36481 20.9843 10.038C23.1979 8.9407 25.4864 8.00144 27.8327 7.22729L27.785 7.18866L27.5278 6.60376L27.3428 6.48476L27.0738 5.90944L26.757 5.58724L26.084 5.29494L25.2025 4.5964L25.1256 4.54824C25.0598 4.62154 24.9933 4.69633 24.9262 4.7726L25.0547 5.19283L24.3849 5.46718L24.3328 5.77236L24.1634 5.67517ZM20.4904 1.76453C20.5759 1.76611 20.6609 1.76929 20.746 1.77228L20.9973 1.62781L20.655 1.20681L20.4904 1.22017V1.76453ZM20.4904 4.21802L20.6975 3.93085L20.4904 3.54828V4.21802ZM20.4904 9.80719C21.386 8.45374 22.2593 7.23102 23.0834 6.16791L22.9983 6.19232L22.5975 6.10938L22.8335 5.76172L22.5752 5.52142L22.4338 5.54266L22.2093 5.65973L22.0583 5.54596L22.0393 5.34496L21.8671 5.28856L21.9202 5.06856L22.067 4.91646L22.8707 4.96859L23.1248 5.03774L23.2588 5.31087L23.43 5.46932L23.246 5.64345L23.3949 5.7203L23.4296 5.72683C23.5204 5.61283 23.6102 5.50148 23.6996 5.39168L23.4683 5.2344L23.262 4.73147L23.0728 4.71767L22.977 4.54333L22.2987 4.67725L22.0818 4.63367L22.1828 4.32L22.2147 3.91173L21.9197 3.60656L22.1499 3.24395L22.0628 3.09624L21.6247 3.06005L21.6468 3.39214L21.512 3.5564L21.2132 3.47687L21.0844 3.83942L21.6342 3.92342L21.9372 4.19777L21.8617 4.36684L21.4747 4.58907L21.2668 4.43477L21.0037 4.53261L21.0633 4.74746L20.9441 4.94625L20.7623 4.88295L20.6188 4.51272L20.4904 4.47213V4.65841L20.5071 4.66341L20.5486 5.00582L20.8473 5.17275L20.9355 5.31148L20.9063 5.49666L21.0037 5.71822L20.9952 6.09035L20.7985 6.07174L20.6615 6.13247L20.738 6.25081L20.7623 6.41988L20.5816 6.81655L20.4904 6.89022V9.80719ZM20.4904 25.0282C22.808 24.994 25.0795 24.3746 27.0936 23.2275C25.1189 19.2282 22.9141 15.3467 20.4904 11.6025V25.0282ZM20.4904 29.5305L20.8687 29.3273L21.4769 29.4337L21.6991 29.6208L22.4785 29.6686L22.757 29.3273L22.6081 29.0934L22.8803 28.5894L23.8872 28.751L24.0042 29.0593L24.4614 29.1402L25.4246 28.785L25.9893 29.0445L26.6601 28.8701L26.8962 28.6586L27.9658 27.9876L28.6569 27.7654L28.9418 27.3188L28.8696 27.1445L28.894 27.0336C28.7238 26.6536 28.5471 26.2657 28.3638 25.87C28.0338 25.1587 27.6887 24.4372 27.3325 23.7114C25.2439 24.895 22.8908 25.5334 20.4904 25.5677V29.5305ZM31.825 35.8966L31.7838 35.937L30.9163 36.3766L30.859 36.0002L31.0481 35.7918L31.0747 35.6218L31.2597 35.3974L31.4022 35.1784L31.5915 35.0604L31.7206 34.9644C31.7024 34.862 31.6823 34.7568 31.6594 34.6474L31.4873 34.7989L31.2512 34.7638L31.1778 34.6032L31.5321 34.0978C31.5026 33.9804 31.4717 33.8609 31.438 33.7371L31.416 33.7511L31.095 34.3512L30.3688 35.1869L29.3045 35.9897H29.1853L28.1488 36.634L28.3241 36.7574L27.9627 37.087L27.6257 37.2815L27.26 37.1603L27.7001 36.9009L27.6109 36.8328L27.1334 36.9955L26.6571 37.2974L26.8251 37.626L27.38 37.5771L27.448 37.9417L26.8463 38.2192H26.8495L25.8597 38.634H25.5289L24.6687 38.7158L24.1521 38.8296L24.5115 38.9178L25.0995 38.8136L25.1665 39.0305L22.1724 39.5578L22.1427 39.3293L23.3324 38.9849L22.9699 38.6286L22.283 38.8327L21.678 38.8455L21.3506 38.4064L20.9306 38.2139L20.8476 38.0662L20.4906 38.1167V40.244C24.5488 40.193 28.4908 38.8817 31.7709 36.4914C31.8157 36.2965 31.8338 36.0964 31.8249 35.8966L31.825 35.8966ZM38.8613 26.8845C38.825 26.4109 38.7007 25.9482 38.4948 25.5201C37.0807 28.7156 34.801 31.4518 31.9133 33.4197C32.0562 33.917 32.1725 34.4215 32.2619 34.9311L32.5015 34.8721L32.7206 34.7753L32.8185 34.9201L32.3277 35.4024C32.3523 35.6162 32.3635 35.8314 32.3612 36.0466C35.3686 33.6857 37.6266 30.5031 38.8613 26.8845L38.8613 26.8845ZM39.9014 20.5665C39.9014 20.3365 39.8961 20.1078 39.8882 19.8796C39.7639 21.5881 39.3853 23.2685 38.7649 24.8652C38.932 25.1717 39.0735 25.4916 39.1879 25.8215C39.6623 24.1102 39.9023 22.3424 39.9014 20.5665L39.9014 20.5665Z" fill="white"/>
<path d="M56.5867 34.7666H57.5619V41.8096H56.4241V36.7711L54.0402 40.0223L51.5479 36.7711V41.8096H50.4102V34.7666H51.4532L54.0538 38.207L56.5867 34.7666ZM66.0733 37.8002C66.0746 38.0861 66.052 38.3716 66.0056 38.6538H60.4523C60.4648 38.9718 60.5427 39.2838 60.6813 39.5703C60.8198 39.8568 61.016 40.1117 61.2576 40.3189C61.4991 40.5261 61.7808 40.6813 62.085 40.7747C62.3892 40.8682 62.7095 40.8978 63.0257 40.8619C63.427 40.8582 63.8216 40.7592 64.1772 40.5732C64.5328 40.3872 64.8391 40.1194 65.071 39.7919L65.8024 40.4691C65.4968 40.9332 65.0774 41.3113 64.5842 41.5673C64.0911 41.8234 63.5405 41.9489 62.9851 41.9318C62.4908 41.97 61.9941 41.9023 61.528 41.7334C61.0619 41.5644 60.6371 41.298 60.2821 40.952C59.9271 40.606 59.6499 40.1882 59.469 39.7266C59.2881 39.265 59.2078 38.7702 59.2332 38.2751C59.1931 37.7898 59.2577 37.3016 59.4227 36.8435C59.5877 36.3854 59.8493 35.9682 60.1897 35.62C60.5301 35.2719 60.9413 35.001 61.3956 34.8257C61.8498 34.6504 62.3365 34.5748 62.8225 34.604C63.2511 34.5796 63.6801 34.6452 64.0819 34.7964C64.4837 34.9477 64.8494 35.1813 65.1556 35.4823C65.4617 35.7833 65.7015 36.145 65.8596 36.5442C66.0176 36.9434 66.0904 37.3712 66.0733 37.8002V37.8002ZM64.8678 37.6245C64.8734 37.3504 64.8211 37.0782 64.7142 36.8257C64.6073 36.5732 64.4482 36.3462 64.2474 36.1595C64.0466 35.9728 63.8087 35.8306 63.5491 35.7423C63.2896 35.654 63.0143 35.6215 62.7413 35.647C62.1771 35.6187 61.6237 35.8081 61.1952 36.1761C60.7667 36.5441 60.4959 37.0626 60.4387 37.6245L64.8678 37.6245ZM76.4199 34.7666H75.0113L72.1129 37.8412V34.7666H70.9749V37.8412L68.1172 34.7666H66.6679L69.6614 38.0176L66.6002 41.8096H67.9818L70.4879 38.7349L70.9749 39.1277V41.8096H72.1129V39.1146L72.5737 38.6808L75.1335 41.8096H76.5421L73.3994 37.9905L76.4199 34.7666ZM83.8902 40.7266H84.9061V43.5167H83.8221V41.8096H78.0254V43.5167H76.9414V40.7266H77.7269C78.4583 39.6024 78.7157 38.0306 78.7157 35.4167V34.7666H83.8903L83.8902 40.7266ZM82.7522 35.8502H79.7857V36.3377C79.8287 37.8443 79.5422 39.3422 78.9461 40.7266H82.7522L82.7522 35.8502ZM89.3558 40.1165L86.714 34.7666H85.3735L88.7868 41.5522L88.5704 42.0811C88.0825 43.2182 87.7168 43.5708 87.2019 43.5708C87.099 43.5694 86.9976 43.5462 86.9043 43.5027L86.4565 44.4916C86.7032 44.6037 86.972 44.6592 87.2429 44.6539C88.2178 44.6539 88.9491 44.0717 89.9109 41.7014L92.5929 34.7666H91.3466L89.3558 40.1165ZM98.9651 37.6923H94.9017V34.7666H93.7645V41.8096H94.9017V38.762H98.9651V41.8096H100.103V34.7666H98.9651L98.9651 37.6923ZM107.822 37.4619V41.8096H106.683V40.7667C106.396 41.1427 106.022 41.4428 105.592 41.6412C105.163 41.8395 104.691 41.93 104.219 41.9048C102.688 41.9048 101.658 41.0512 101.658 39.7508C101.658 38.2209 103 37.5703 105.031 37.5703C105.588 37.5734 106.143 37.6416 106.683 37.7735C106.683 36.5003 106.278 35.674 104.801 35.674C104.032 35.6899 103.292 35.967 102.701 36.4597L102.119 35.6063C102.91 34.9496 103.908 34.5945 104.936 34.604C105.324 34.5575 105.717 34.5993 106.086 34.726C106.456 34.8528 106.792 35.0614 107.069 35.3362C107.347 35.611 107.558 35.9449 107.689 36.313C107.819 36.6811 107.864 37.0738 107.822 37.462L107.822 37.4619ZM106.683 38.7759C106.196 38.6334 105.689 38.5649 105.181 38.5726C103.758 38.5726 102.864 38.8571 102.864 39.7106C102.864 40.442 103.528 40.8749 104.489 40.8749C104.948 40.8749 105.398 40.7452 105.786 40.5007C106.174 40.2563 106.485 39.907 106.683 39.4933L106.683 38.7759ZM116.588 38.1658C116.623 38.6477 116.558 39.1317 116.398 39.5875C116.238 40.0433 115.985 40.461 115.655 40.8145C115.326 41.1681 114.927 41.4498 114.484 41.642C114.041 41.8343 113.562 41.9329 113.079 41.9318C112.693 41.9615 112.304 41.9133 111.936 41.7899C111.569 41.6665 111.23 41.4705 110.939 41.2135V44.5186H109.801V34.7665H110.939V35.647C111.205 35.3015 111.552 35.026 111.948 34.8443C112.344 34.6626 112.779 34.5801 113.214 34.604C113.678 34.588 114.14 34.6707 114.569 34.8466C114.998 35.0226 115.385 35.2877 115.704 35.6245C116.023 35.9613 116.267 36.3621 116.419 36.8002C116.571 37.2383 116.629 37.7038 116.588 38.1659L116.588 38.1658ZM115.382 38.2479C115.426 37.9237 115.4 37.5938 115.304 37.2809C115.209 36.9679 115.047 36.6793 114.829 36.4349C114.612 36.1904 114.344 35.9958 114.044 35.8645C113.745 35.7331 113.42 35.6682 113.093 35.674C112.629 35.6747 112.176 35.8144 111.792 36.0752C111.408 36.3359 111.111 36.7057 110.939 37.1368V39.7648C111.147 40.1172 111.448 40.4059 111.809 40.5993C112.169 40.7927 112.576 40.8835 112.985 40.8618C113.318 40.86 113.647 40.7895 113.951 40.6546C114.256 40.5198 114.529 40.3235 114.754 40.0782C114.979 39.8328 115.151 39.5436 115.259 39.2286C115.367 38.9137 115.409 38.5798 115.382 38.248L115.382 38.2479ZM125.334 38.275C125.348 39.0167 125.14 39.7456 124.738 40.3691C124.336 40.9925 123.758 41.4823 123.077 41.7761C122.395 42.0699 121.642 42.1545 120.913 42.019C120.184 41.8836 119.511 41.5342 118.981 41.0154C118.451 40.4966 118.087 39.8318 117.935 39.1056C117.784 38.3794 117.852 37.6246 118.131 36.9372C118.41 36.2498 118.887 35.6609 119.501 35.2454C120.116 34.8299 120.84 34.6066 121.582 34.6039C122.075 34.576 122.569 34.6512 123.031 34.8248C123.494 34.9983 123.915 35.2663 124.268 35.6118C124.621 35.9572 124.898 36.3725 125.082 36.831C125.265 37.2896 125.351 37.7814 125.334 38.2751L125.334 38.275ZM124.129 38.275C124.146 37.9335 124.093 37.592 123.972 37.2721C123.851 36.9523 123.665 36.661 123.425 36.4166C123.186 36.1722 122.899 35.9801 122.581 35.8523C122.264 35.7245 121.924 35.6638 121.582 35.674C121.067 35.6646 120.561 35.8085 120.129 36.0875C119.696 36.3664 119.356 36.7678 119.152 37.2406C118.948 37.7133 118.89 38.236 118.984 38.7422C119.078 39.2484 119.321 39.7151 119.681 40.0829C120.041 40.4508 120.502 40.7032 121.007 40.808C121.511 40.9127 122.034 40.8652 122.511 40.6713C122.988 40.4775 123.397 40.1461 123.685 39.7194C123.973 39.2926 124.127 38.7899 124.129 38.275ZM132.849 40.7266H133.865V43.5167H132.781V41.8096H126.983V43.5167H125.9V40.7266H126.686C127.417 39.6024 127.675 38.0306 127.675 35.4167V34.7666H132.849L132.849 40.7266ZM131.711 35.8501H128.745V36.3377C128.788 37.8443 128.501 39.3422 127.905 40.7266H131.711L131.711 35.8501ZM140.455 37.6922H136.391V34.7666H135.253V41.8096H136.391V38.762H140.455V41.8096H141.592V34.7666H140.455V37.6922ZM149.31 37.4619V41.8096H148.173V40.7667C147.886 41.1427 147.511 41.4428 147.081 41.6412C146.652 41.8395 146.18 41.93 145.708 41.9048C144.177 41.9048 143.148 41.0512 143.148 39.7508C143.148 38.2209 144.488 37.5703 146.52 37.5703C147.077 37.5734 147.632 37.6416 148.173 37.7735C148.173 36.5003 147.766 35.674 146.29 35.674C145.521 35.6901 144.781 35.9672 144.191 36.4597L143.608 35.6063C144.399 34.9496 145.398 34.5945 146.426 34.604C146.813 34.5576 147.207 34.5994 147.576 34.7263C147.945 34.8531 148.281 35.0617 148.558 35.3365C148.835 35.6113 149.047 35.9452 149.177 36.3132C149.308 36.6812 149.353 37.0739 149.31 37.462L149.31 37.4619ZM148.173 38.7759C147.685 38.6334 147.178 38.5649 146.669 38.5725C145.247 38.5725 144.353 38.8571 144.353 39.7106C144.353 40.442 145.017 40.8749 145.978 40.8749C146.437 40.8749 146.887 40.7452 147.275 40.5007C147.663 40.2563 147.975 39.907 148.173 39.4933L148.173 38.7759ZM154.094 34.7665H156.925V41.8095H155.787V39.318H154.067L151.981 41.8096H150.599L152.849 39.1416C152.342 39.0701 151.879 38.8158 151.547 38.4265C151.215 38.0373 151.037 37.54 151.046 37.0285C151.046 35.823 151.833 34.7666 154.094 34.7666L154.094 34.7665ZM155.787 35.8501H153.959C152.726 35.8501 152.252 36.3512 152.252 37.0555C152.252 37.7328 152.876 38.2339 153.932 38.2339H155.787V35.8501ZM170.044 38.2036L167.443 34.7633H166.4V41.8063H167.538V36.768L170.03 40.0181L172.414 36.768V41.8064H173.552V34.7634H172.577L170.044 38.2036ZM182.063 37.7969C182.064 38.0828 182.042 38.3683 181.995 38.6505H176.442C176.455 38.9685 176.533 39.2805 176.671 39.567C176.81 39.8535 177.006 40.1084 177.247 40.3156C177.489 40.5228 177.771 40.678 178.075 40.7714C178.379 40.8649 178.699 40.8945 179.016 40.8586C179.417 40.8549 179.812 40.756 180.167 40.5699C180.523 40.3839 180.829 40.1161 181.061 39.7886L181.792 40.4658C181.487 40.9299 181.067 41.308 180.574 41.564C180.081 41.8201 179.53 41.9455 178.975 41.9285C178.481 41.9667 177.984 41.899 177.518 41.73C177.051 41.5609 176.627 41.2945 176.272 40.9483C175.917 40.6022 175.639 40.1844 175.459 39.7226C175.278 39.2609 175.197 38.766 175.223 38.2708C175.183 37.7856 175.248 37.2975 175.413 36.8395C175.578 36.3816 175.839 35.9644 176.18 35.6164C176.52 35.2684 176.931 34.9976 177.386 34.8224C177.84 34.6472 178.326 34.5717 178.812 34.601C179.241 34.5765 179.67 34.642 180.072 34.7932C180.474 34.9445 180.839 35.1781 181.146 35.4791C181.452 35.7801 181.691 36.1418 181.85 36.541C182.008 36.9401 182.08 37.368 182.063 37.797L182.063 37.7969ZM180.858 37.6206C180.863 37.3465 180.811 37.0744 180.704 36.822C180.597 36.5696 180.438 36.3427 180.237 36.156C180.036 35.9694 179.798 35.8273 179.539 35.7391C179.279 35.6508 179.004 35.6184 178.731 35.644C178.167 35.6155 177.614 35.8047 177.185 36.1726C176.757 36.5405 176.486 37.0588 176.429 37.6207L180.858 37.6206ZM189.672 40.7223H190.688V43.5135H189.605V41.8064H183.807V43.5135H182.724V40.7224H183.509C184.241 39.5983 184.498 38.0274 184.498 35.4135V34.7633H189.672L189.672 40.7223ZM188.535 35.8463H185.568V36.3342C185.611 37.8406 185.325 39.3382 184.728 40.7223H188.535V35.8463ZM193.214 40.045V34.7632H192.077V41.8062H193.12L197.413 36.5375V41.8064H198.551V34.7634H197.495L193.214 40.045ZM206.266 37.4582V41.8062H205.128V40.7635C204.841 41.1394 204.466 41.4396 204.037 41.6379C203.607 41.8363 203.135 41.9267 202.663 41.9015C201.133 41.9015 200.103 41.0479 200.103 39.7476C200.103 38.2168 201.444 37.5666 203.476 37.5666C204.033 37.5698 204.587 37.6381 205.128 37.77C205.128 36.4966 204.722 35.671 203.246 35.671C202.477 35.6867 201.736 35.9638 201.146 36.4565L200.564 35.6029C201.355 34.9465 202.353 34.5916 203.381 34.6011C203.769 34.5547 204.162 34.5964 204.531 34.7232C204.9 34.8499 205.236 35.0585 205.514 35.3331C205.791 35.6078 206.003 35.9416 206.133 36.3096C206.263 36.6776 206.309 37.0703 206.266 37.4583L206.266 37.4582ZM205.128 38.7726C204.64 38.6301 204.133 38.5615 203.625 38.5693C202.203 38.5693 201.308 38.8538 201.308 39.7064C201.308 40.4387 201.972 40.8716 202.934 40.8716C203.393 40.8716 203.842 40.7419 204.231 40.4975C204.619 40.253 204.93 39.9037 205.128 39.49L205.128 38.7726ZM208.246 41.8064H209.384V35.8334H213.379V34.7634H208.246V41.8064ZM221.431 38.1626C221.466 38.6445 221.402 39.1285 221.241 39.5843C221.081 40.0401 220.828 40.4578 220.499 40.8113C220.169 41.1649 219.77 41.4466 219.327 41.6388C218.884 41.8311 218.406 41.9297 217.922 41.9286C217.536 41.9583 217.147 41.9101 216.78 41.7867C216.412 41.6633 216.073 41.4673 215.782 41.2103V44.5154H214.644V34.7633H215.782V35.644C216.048 35.2984 216.395 35.0228 216.791 34.8411C217.187 34.6593 217.622 34.577 218.058 34.6011C218.521 34.585 218.983 34.6677 219.412 34.8436C219.841 35.0195 220.228 35.2846 220.547 35.6214C220.866 35.9581 221.11 36.3589 221.262 36.797C221.415 37.2351 221.472 37.7006 221.431 38.1626H221.431ZM220.225 38.2438C220.269 37.9196 220.242 37.5898 220.147 37.2769C220.051 36.964 219.889 36.6755 219.672 36.4311C219.454 36.1867 219.186 35.9922 218.887 35.861C218.587 35.7298 218.263 35.665 217.936 35.671C217.472 35.6717 217.018 35.8115 216.635 36.0722C216.251 36.3329 215.954 36.7027 215.783 37.1337V39.7616C215.99 40.114 216.291 40.4027 216.651 40.5961C217.012 40.7895 217.419 40.8803 217.827 40.8586C218.16 40.8568 218.489 40.7863 218.794 40.6514C219.099 40.5165 219.372 40.3202 219.597 40.0747C219.822 39.8292 219.994 39.5398 220.102 39.2248C220.21 38.9097 220.252 38.5758 220.225 38.2438H220.225ZM225.863 40.1133L223.222 34.7633H221.881L225.295 41.549L225.077 42.077C224.59 43.2151 224.224 43.5677 223.71 43.5677C223.607 43.5662 223.505 43.543 223.411 43.4996L222.964 44.4884C223.211 44.6005 223.479 44.656 223.75 44.6508C224.726 44.6508 225.457 44.0686 226.419 41.6982L229.101 34.7634H227.855L225.863 40.1133ZM230.272 41.8064H231.41V35.8334H235.392V41.8064H236.529V34.7634H230.271L230.272 41.8064ZM238.588 41.8064H239.726V35.8334H243.708V41.8064H244.845V34.7634H238.588L238.588 41.8064ZM252.566 37.4584V41.8064H251.429V40.7635C251.141 41.1394 250.766 41.4396 250.337 41.6379C249.907 41.8362 249.436 41.9267 248.963 41.9015C247.432 41.9015 246.403 41.0479 246.403 39.7476C246.403 38.2168 247.744 37.5666 249.776 37.5666C250.333 37.5698 250.887 37.6381 251.429 37.77C251.429 36.4966 251.022 35.671 249.546 35.671C248.777 35.6867 248.037 35.9638 247.446 36.4565L246.864 35.6029C247.655 34.9465 248.653 34.5916 249.681 34.6011C250.069 34.5547 250.462 34.5965 250.831 34.7233C251.2 34.85 251.536 35.0586 251.813 35.3333C252.091 35.608 252.302 35.9418 252.433 36.3097C252.563 36.6777 252.608 37.0703 252.566 37.4583L252.566 37.4584ZM251.429 38.7728C250.94 38.6303 250.433 38.5617 249.925 38.5694C248.503 38.5694 247.609 38.8539 247.609 39.7065C247.609 40.4388 248.273 40.8717 249.235 40.8717C249.693 40.8716 250.143 40.7419 250.531 40.4974C250.919 40.253 251.23 39.9038 251.429 39.4901V38.7728ZM59.0298 19.8668H54.1086V27.2026H50.4102V5.80637H59.0603C66.2739 5.80637 67.9551 9.44376 67.9551 12.8366C67.9551 16.3517 65.6932 19.8667 59.0298 19.8667L59.0298 19.8668ZM64.1038 12.8061C64.1038 10.7582 62.8201 9.26045 59.1827 9.26045H54.1087V16.4128H58.9687C62.5754 16.4128 64.1038 15.0068 64.1038 12.8061L64.1038 12.8061ZM69.6069 16.5046C69.6069 13.6024 70.7597 10.8191 72.8119 8.76698C74.864 6.71484 77.6473 5.56196 80.5495 5.56196C83.4517 5.56196 86.235 6.71484 88.2871 8.76698C90.3392 10.8191 91.4921 13.6024 91.4921 16.5046C91.4921 19.4068 90.3392 22.1901 88.2871 24.2422C86.235 26.2943 83.4517 27.4472 80.5495 27.4472C77.6473 27.4472 74.864 26.2943 72.8119 24.2422C70.7597 22.1901 69.6069 19.4068 69.6069 16.5046V16.5046ZM73.4583 16.5046C73.4199 17.4605 73.5749 18.4144 73.9138 19.309C74.2527 20.2037 74.7686 21.0208 75.4306 21.7114C76.0927 22.402 76.8873 22.9519 77.7669 23.3283C78.6465 23.7046 79.5929 23.8996 80.5496 23.9016C81.5107 23.9149 82.4642 23.7303 83.3509 23.3593C84.2376 22.9882 85.0384 22.4387 85.7035 21.7449C86.3687 21.0511 86.884 20.2278 87.2173 19.3262C87.5506 18.4247 87.6948 17.4642 87.6409 16.5046C87.6813 15.5482 87.5278 14.5934 87.1896 13.6979C86.8515 12.8023 86.3356 11.9844 85.6732 11.2934C85.0107 10.6023 84.2153 10.0524 83.3348 9.6768C82.4543 9.30115 81.5069 9.1075 80.5496 9.1075C79.5923 9.1075 78.6449 9.30115 77.7644 9.6768C76.8839 10.0524 76.0885 10.6023 75.4261 11.2934C74.7636 11.9844 74.2478 12.8023 73.9096 13.6979C73.5714 14.5934 73.4179 15.5482 73.4583 16.5046V16.5046ZM104.52 27.4471C106.178 27.5183 107.829 27.1953 109.338 26.5046C110.848 25.8138 112.171 24.7751 113.201 23.4736L111.03 21.0894C110.271 21.999 109.316 22.7246 108.236 23.2116C107.156 23.6987 105.98 23.9346 104.795 23.9016C103.808 23.9582 102.819 23.8059 101.895 23.4546C100.97 23.1033 100.13 22.5609 99.4286 21.8629C98.7276 21.1648 98.1818 20.3268 97.8266 19.4035C97.4715 18.4802 97.3151 17.4924 97.3676 16.5046C97.3676 12.0419 100.241 9.10756 104.642 9.10756C105.727 9.08108 106.804 9.28852 107.801 9.71575C108.798 10.143 109.691 10.78 110.419 11.5834L112.865 9.2604C111.397 7.12076 108.341 5.56197 104.459 5.56197C103.007 5.50608 101.559 5.75089 100.206 6.28104C98.8533 6.81118 97.6245 7.61522 96.5971 8.6427C95.5696 9.67018 94.7656 10.8989 94.2355 12.2518C93.7053 13.6047 93.4605 15.0526 93.5164 16.5046C93.5164 23.1374 97.7953 27.4471 104.52 27.4471L104.52 27.4471ZM133.558 23.4736L131.388 21.0894C130.629 21.9989 129.674 22.7244 128.594 23.2115C127.514 23.6986 126.337 23.9345 125.153 23.9016C124.166 23.9582 123.177 23.8059 122.252 23.4546C121.328 23.1033 120.487 22.5609 119.786 21.8629C119.085 21.1648 118.54 20.3268 118.184 19.4035C117.829 18.4802 117.673 17.4924 117.725 16.5046C117.725 12.0419 120.599 9.10756 125 9.10756C126.084 9.08119 127.162 9.28868 128.158 9.7159C129.155 10.1431 130.048 10.7801 130.777 11.5834L133.223 9.2604C131.755 7.12076 128.698 5.56197 124.817 5.56197C123.365 5.50608 121.917 5.75089 120.564 6.28104C119.211 6.81118 117.982 7.61522 116.955 8.6427C115.927 9.67018 115.123 10.8989 114.593 12.2518C114.063 13.6047 113.818 15.0526 113.874 16.5046C113.874 23.1374 118.153 27.4472 124.878 27.4472C126.536 27.5184 128.187 27.1954 129.696 26.5047C131.205 25.814 132.528 24.7752 133.558 23.4736L133.558 23.4736ZM151.023 12.3781V27.2026H154.722V5.80637H151.604L139.867 20.6309V5.80637H136.168V27.2026H139.255L151.023 12.3781ZM167.409 19.6834L161.387 27.2026H156.955L163.588 19.0415C160.348 18.2163 158.453 15.985 158.453 12.7755C158.453 8.89361 161.265 5.80651 167.133 5.80651H175.845V27.2026H172.147V19.6834L167.409 19.6834ZM166.492 16.2294H172.147V9.26042H166.859C163.588 9.26042 162.304 10.697 162.304 12.7754C162.304 14.64 163.894 16.1071 166.492 16.2294L166.492 16.2294ZM200.81 27.4472C202.468 27.5185 204.12 27.1955 205.629 26.5047C207.138 25.814 208.461 24.7752 209.491 23.4736L207.321 21.0894C206.562 21.9989 205.606 22.7244 204.526 23.2115C203.446 23.6986 202.27 23.9345 201.086 23.9015C200.098 23.9581 199.109 23.8058 198.185 23.4545C197.26 23.1032 196.42 22.5608 195.719 21.8628C195.018 21.1648 194.472 20.3267 194.117 19.4034C193.762 18.4802 193.605 17.4924 193.658 16.5045C193.658 12.0419 196.531 9.10752 200.933 9.10752C202.017 9.08109 203.094 9.28856 204.091 9.71579C205.088 10.143 205.981 10.78 206.71 11.5834L209.155 9.26036C207.688 7.12071 204.631 5.56187 200.749 5.56187C199.297 5.50602 197.849 5.75086 196.496 6.28102C195.144 6.81118 193.915 7.61523 192.887 8.6427C191.86 9.67017 191.056 10.8989 190.526 12.2518C189.996 13.6047 189.751 15.0526 189.807 16.5045C189.807 23.1374 194.086 27.4472 200.81 27.4472L200.81 27.4472ZM228.301 23.7182H215.799V18.0329H227.201V14.6706H215.799V9.29097H227.996V5.80637H212.101V27.2026H228.301L228.301 23.7182ZM235.501 9.29097H243.893V5.80637H231.801V27.2026H235.501V9.29097ZM265.617 16.5852C265.614 19.4856 264.46 22.2663 262.408 24.3163C260.356 26.3663 257.575 27.5178 254.674 27.5178C251.774 27.5178 248.992 26.3663 246.94 24.3163C244.888 22.2663 243.734 19.4856 243.731 16.5852C243.734 13.6847 244.888 10.904 246.94 8.85401C248.992 6.80405 251.774 5.65256 254.674 5.65256C257.575 5.65256 260.356 6.80405 262.408 8.85401C264.46 10.904 265.614 13.6847 265.617 16.5852V16.5852ZM261.765 16.5852C261.805 15.6287 261.652 14.674 261.314 13.7785C260.975 12.8829 260.459 12.065 259.797 11.374C259.135 10.683 258.339 10.1331 257.459 9.75748C256.578 9.38185 255.631 9.1882 254.674 9.1882C253.716 9.1882 252.769 9.38185 251.888 9.75748C251.008 10.1331 250.212 10.683 249.55 11.374C248.888 12.065 248.372 12.8829 248.034 13.7785C247.695 14.674 247.542 15.6287 247.582 16.5852C247.544 17.5411 247.699 18.4949 248.038 19.3895C248.377 20.2841 248.893 21.1012 249.555 21.7918C250.217 22.4824 251.011 23.0323 251.891 23.4087C252.77 23.785 253.717 23.9801 254.674 23.9822C255.635 23.9955 256.588 23.8109 257.475 23.4399C258.361 23.0688 259.162 22.5193 259.827 21.8254C260.493 21.1316 261.008 20.3083 261.341 19.4068C261.674 18.5052 261.819 17.5448 261.765 16.5851V16.5852ZM285.215 23.8293H287.814V31.0429H284.237V27.2832H268.984V31.0429H265.409V23.8292H267.701C269.107 21.7202 270.085 18.5107 270.085 9.00473V5.88697H285.215V23.8293ZM281.517 9.34097H273.6V10.6859C273.6 17.3187 272.897 21.3229 271.552 23.8292H281.517V9.34097ZM305.18 14.7206H293.962V5.88697H290.264V27.2832H293.962V18.205H305.18V27.2832H308.878V5.88697H305.18L305.18 14.7206ZM330 5.88697V27.2832H326.302V19.764H321.564L315.543 27.2831H311.111L317.743 19.122C314.503 18.2967 312.608 16.0655 312.608 12.856C312.608 8.97416 315.42 5.88688 321.289 5.88688L330 5.88697ZM326.302 9.34097H321.013C317.743 9.34097 316.459 10.7776 316.459 12.856C316.459 14.7206 318.049 16.1877 320.647 16.31H326.302V9.34097Z" fill="#000F5A"/>
</g>
<defs>
<clipPath id="clip0_108_96">
<rect width="339" height="45" fill="white"/>
</clipPath>
</defs>
</svg>
