<svg xmlns="http://www.w3.org/2000/svg" fill-rule="evenodd" stroke-linejoin="round" stroke-miterlimit="1.414" clip-rule="evenodd" viewBox="0 0 38 38">
  <g fill-rule="nonzero">
    <path fill="#fff" d="M37.5 1.329l-5.931 34.61s-.829 2.4-3.111 1.248L14.772 25.042l-4.977-2.784-8.378-3.264s-1.286-.528-1.41-1.68c-.124-1.152 1.452-1.776 1.452-1.776L34.763.417S37.5-.975 37.5 1.329"/>
    <path fill="#d5e5f1" d="M13.72 35.55s-.4-.043-.897-1.867c-.498-1.824-3.028-11.425-3.028-11.425L29.91 7.473s1.161-.816 1.12 0c0 0 .207.144-.415.816-.622.672-15.802 16.465-15.802 16.465"/>
    <path fill="#b7d0e5" d="M20.02 29.699l-5.414 5.713s-.423.371-.886.138l1.036-10.611"/>
  </g>
</svg>
