<svg viewBox="0 0 260 260" fill="none" xmlns="http://www.w3.org/2000/svg">
    <circle cx="130" cy="130" r="130" fill="url(#paint0_linear_0_1)"/>
    <path d="M116.537 175.66C115.79 174.26 114.484 172.86 112.617 171.46C110.75 169.967 108.51 168.52 105.897 167.12C103.284 165.72 100.484 164.367 97.497 163.06C94.5104 161.753 91.5704 160.493 88.677 159.28C85.7837 157.973 83.077 156.76 80.557 155.64C78.7837 154.893 77.2437 154.147 75.937 153.4C78.6437 154.987 81.4904 156.433 84.477 157.74C87.9304 159.327 91.3837 160.96 94.837 162.64C98.3837 164.32 101.79 166.093 105.057 167.96C108.324 169.827 111.31 171.973 114.017 174.4C111.31 173.653 107.904 172.44 103.797 170.76C99.6904 168.987 95.4904 167.073 91.197 165.02C86.997 162.873 82.8904 160.727 78.877 158.58C74.957 156.433 71.7837 154.567 69.357 152.98L70.337 151.72C67.7237 149.947 65.0637 147.893 62.357 145.56C59.6504 143.227 57.5504 140.66 56.057 137.86C55.0304 142.247 54.4237 146.447 54.237 150.46C54.0504 154.473 53.957 158.3 53.957 161.94C53.957 163.247 54.2837 164.507 54.937 165.72C55.5904 166.84 55.917 167.913 55.917 168.94C55.917 170.34 55.2637 171.18 53.957 171.46C53.2104 169.687 52.6504 167.913 52.277 166.14C51.9037 164.367 51.6237 162.593 51.437 160.82C51.437 162.687 51.5304 164.507 51.717 166.28C51.997 168.147 52.4637 170.013 53.117 171.88L51.017 172.72L52.277 174.4C52.0904 175.427 51.6704 176.407 51.017 177.34C50.457 178.18 49.5704 178.6 48.357 178.6C46.8637 178.6 45.6504 177.807 44.717 176.22C43.877 174.54 43.177 172.58 42.617 170.34C42.1504 168.007 41.8237 165.673 41.637 163.34C41.5437 160.913 41.497 158.907 41.497 157.32C41.497 154.147 41.497 151.02 41.497 147.94C41.5904 144.86 41.7304 141.733 41.917 138.56C41.4504 141.547 41.1704 144.58 41.077 147.66C41.077 150.74 41.077 153.82 41.077 156.9C41.077 160.167 41.2637 163.527 41.637 166.98C42.0104 170.433 42.5704 173.747 43.317 176.92C42.1037 175.8 41.1704 174.54 40.517 173.14C39.957 171.74 39.4904 170.293 39.117 168.8C38.837 167.213 38.6037 165.627 38.417 164.04C38.3237 162.453 38.2304 160.913 38.137 159.42L39.817 159C39.4437 157.6 39.2104 156.2 39.117 154.8C39.0237 153.307 38.977 151.813 38.977 150.32C38.977 147.053 39.2104 143.88 39.677 140.8C40.1437 137.627 40.377 134.407 40.377 131.14V129.46L40.237 125.96H39.397C39.2104 130.44 38.9304 134.92 38.557 139.4C38.277 143.88 38.0904 148.407 37.997 152.98C37.9037 152.047 37.857 151.16 37.857 150.32V147.66C37.857 140.847 38.1837 134.173 38.837 127.64C39.5837 121.013 40.3304 114.34 41.077 107.62C41.2637 105.473 41.8237 103.513 42.757 101.74C43.6904 99.8733 44.437 97.96 44.997 96C45.3704 96.28 45.837 96.4667 46.397 96.56C46.957 96.56 47.4704 96.6067 47.937 96.7C48.4037 96.7 48.8237 96.84 49.197 97.12C49.5704 97.4 49.757 97.8667 49.757 98.52C49.757 98.8933 49.7104 99.2667 49.617 99.64L49.337 100.76L50.597 101.18C51.2504 100.153 52.0904 99.1733 53.117 98.24C54.1437 97.3067 55.3104 96.84 56.617 96.84C57.6437 96.84 58.3904 97.26 58.857 98.1C59.3237 98.94 59.557 99.8267 59.557 100.76C59.557 101.32 59.4637 102.487 59.277 104.26C59.1837 106.033 58.997 108.087 58.717 110.42C58.5304 112.753 58.297 115.273 58.017 117.98C57.737 120.593 57.457 123.067 57.177 125.4C56.9904 127.733 56.8037 129.74 56.617 131.42C56.4304 133.007 56.337 133.987 56.337 134.36L59.697 126.8C59.417 127.64 59.137 128.34 58.857 128.9C58.6704 129.46 58.4837 130.02 58.297 130.58C58.1104 131.14 57.8304 131.747 57.457 132.4C57.177 133.053 56.757 133.893 56.197 134.92V136.88L60.817 126.38C62.3104 126.38 63.757 126.38 65.157 126.38C66.6504 126.287 68.1437 126.1 69.637 125.82L71.037 125.54C68.9837 125.54 67.3504 125.54 66.137 125.54C65.017 125.447 63.9437 125.307 62.917 125.12C66.6504 125.12 70.337 125.073 73.977 124.98C77.7104 124.793 81.4904 124.7 85.317 124.7C88.677 124.7 91.9904 124.607 95.257 124.42C98.617 124.233 101.604 123.58 104.217 122.46C106.924 121.34 109.117 119.613 110.797 117.28C112.477 114.947 113.317 111.633 113.317 107.34C113.317 102.953 112.757 99.4067 111.637 96.7C110.517 93.9933 108.884 91.8933 106.737 90.4C104.684 88.8133 102.07 87.7867 98.897 87.32C95.7237 86.76 92.1304 86.48 88.117 86.48C79.9037 86.48 71.6437 86.8533 63.337 87.6C55.0304 88.3467 46.9104 89.7467 38.977 91.8C38.7904 91.0533 38.6504 90.4 38.557 89.84C38.4637 89.1867 38.2304 88.6267 37.857 88.16C37.857 87.6 38.3704 87.0867 39.397 86.62C40.4237 86.1533 41.5904 85.78 42.897 85.5C44.2037 85.22 45.417 84.9867 46.537 84.8C47.7504 84.6133 48.5437 84.4733 48.917 84.38V82.7C48.2637 82.7933 47.1437 82.8867 45.557 82.98C43.9704 83.0733 42.2437 83.12 40.377 83.12C37.857 83.12 35.5237 82.98 33.377 82.7C31.2304 82.3267 30.157 81.6267 30.157 80.6C30.157 79.48 31.3704 78.4067 33.797 77.38C36.317 76.3533 39.4904 75.42 43.317 74.58C47.1437 73.6467 51.3437 72.8533 55.917 72.2C60.4904 71.5467 64.877 70.9867 69.077 70.52C73.3704 69.96 77.1504 69.5867 80.417 69.4C83.777 69.12 86.1104 68.98 87.417 68.98C94.137 68.98 100.204 69.68 105.617 71.08C111.03 72.3867 115.604 74.58 119.337 77.66C123.164 80.74 126.057 84.8 128.017 89.84C130.07 94.7867 131.097 100.9 131.097 108.18C131.097 114.247 129.93 119.427 127.597 123.72C125.357 127.92 122.324 131.373 118.497 134.08C114.67 136.693 110.284 138.653 105.337 139.96C100.39 141.173 95.257 141.78 89.937 141.78C88.4437 141.78 86.9504 141.733 85.457 141.64C84.057 141.547 82.6104 141.453 81.117 141.36C82.1437 142.013 83.8237 142.9 86.157 144.02C88.5837 145.14 91.2437 146.4 94.137 147.8C97.1237 149.2 100.204 150.693 103.377 152.28C106.644 153.773 109.584 155.267 112.197 156.76C114.81 158.16 116.957 159.513 118.637 160.82C120.317 162.033 121.157 163.013 121.157 163.76L120.457 164.6C117.377 162.36 114.204 160.4 110.937 158.72C107.67 157.04 104.31 155.453 100.857 153.96C97.497 152.467 94.0904 151.02 90.637 149.62C87.3704 148.22 84.1037 146.587 80.837 144.72C84.0104 146.587 87.1837 148.22 90.357 149.62L100.297 154.1C103.657 155.593 106.924 157.18 110.097 158.86C113.364 160.447 116.49 162.36 119.477 164.6L117.657 166.28C118.31 166.747 119.057 167.4 119.897 168.24C120.83 168.987 121.67 169.827 122.417 170.76C123.257 171.693 123.957 172.673 124.517 173.7C125.077 174.633 125.357 175.52 125.357 176.36C125.357 177.573 124.797 178.18 123.677 178.18C122.557 178.18 121.344 177.853 120.037 177.2C118.73 176.547 117.564 176.033 116.537 175.66ZM86.017 125.54C84.1504 125.54 82.1904 125.587 80.137 125.68C78.177 125.68 76.1704 125.68 74.117 125.68C76.4504 125.773 78.877 125.913 81.397 126.1C83.917 126.193 86.4837 126.24 89.097 126.24C92.3637 126.24 95.537 126.053 98.617 125.68C101.79 125.213 104.59 124.327 107.017 123.02C109.444 121.62 111.357 119.753 112.757 117.42C114.25 114.993 114.997 111.82 114.997 107.9C114.997 106.593 114.904 105.333 114.717 104.12C114.53 102.907 114.297 101.647 114.017 100.34H113.177C113.737 102.58 114.017 104.867 114.017 107.2C114.017 111.4 113.27 114.713 111.777 117.14C110.284 119.567 108.277 121.433 105.757 122.74C103.237 123.953 100.25 124.747 96.797 125.12C93.437 125.4 89.8437 125.54 86.017 125.54ZM61.237 128.62C64.9704 128.807 68.7504 128.947 72.577 129.04C76.497 129.04 80.5104 129.04 84.617 129.04C87.0437 129.04 89.4704 128.993 91.897 128.9C94.3237 128.713 96.657 128.387 98.897 127.92C97.8704 128.107 96.8437 128.2 95.817 128.2H92.877C91.757 128.2 90.4037 128.2 88.817 128.2C87.2304 128.107 85.5037 128.013 83.637 127.92C81.7704 127.827 79.8104 127.78 77.757 127.78C75.7037 127.687 73.697 127.64 71.737 127.64C69.5904 127.64 67.6304 127.687 65.857 127.78C64.0837 127.873 62.5437 128.153 61.237 128.62ZM55.917 139.4C57.7837 141.827 59.6504 144.113 61.517 146.26C63.477 148.313 65.6704 150.273 68.097 152.14C65.857 150.553 63.5704 148.64 61.237 146.4C58.997 144.16 57.2237 141.827 55.917 139.4ZM76.637 138.28C78.5037 138.467 80.3704 138.607 82.237 138.7C84.0104 138.793 85.6904 138.887 87.277 138.98C85.9704 138.887 84.6637 138.747 83.357 138.56C81.8637 138.28 80.3704 138.14 78.877 138.14H77.757C77.3837 138.14 77.0104 138.187 76.637 138.28ZM60.817 128.62C60.7237 128.9 60.4437 129.46 59.977 130.3C59.6037 131.14 59.1837 132.073 58.717 133.1C58.3437 134.033 57.9704 134.92 57.597 135.76C57.2237 136.6 57.037 137.16 57.037 137.44L57.317 137.16L60.817 129.04V128.62ZM75.377 140.94H74.957C76.2637 141.967 77.757 142.947 79.437 143.88L75.377 140.94ZM58.157 138.56C58.3437 139.027 58.6237 139.587 58.997 140.24C59.4637 140.8 60.0237 141.407 60.677 142.06C60.117 141.407 59.6504 140.753 59.277 140.1C58.9037 139.353 58.6237 138.653 58.437 138L58.157 138.56ZM74.677 152.7C74.957 152.887 75.1904 153.027 75.377 153.12L74.677 152.7ZM136.048 170.62C136.048 170.06 136.375 169.547 137.028 169.08C137.682 168.613 138.428 168.193 139.268 167.82C140.202 167.447 141.088 167.12 141.928 166.84C142.862 166.56 143.562 166.327 144.028 166.14C148.508 166.7 152.988 167.167 157.468 167.54C161.948 167.913 166.428 168.1 170.908 168.1C172.588 168.1 174.922 168.1 177.908 168.1C180.895 168.007 184.162 167.82 187.708 167.54C191.255 167.26 194.848 166.84 198.488 166.28C202.128 165.627 205.442 164.74 208.428 163.62C211.415 162.5 213.842 161.1 215.708 159.42C217.575 157.74 218.508 155.64 218.508 153.12C218.508 151.067 218.042 149.247 217.108 147.66C216.268 145.98 215.102 144.533 213.608 143.32C212.208 142.013 210.622 140.94 208.848 140.1C208.195 139.727 207.495 139.4 206.748 139.12C207.495 139.493 208.195 139.867 208.848 140.24C210.528 141.173 212.022 142.34 213.328 143.74C214.728 145.047 215.848 146.54 216.688 148.22C217.528 149.807 217.948 151.627 217.948 153.68C217.948 155.92 217.108 157.833 215.428 159.42C213.842 160.913 211.742 162.173 209.128 163.2C206.608 164.227 203.762 165.02 200.588 165.58C197.508 166.14 194.428 166.56 191.348 166.84C188.268 167.12 185.422 167.307 182.808 167.4C180.195 167.4 178.142 167.4 176.648 167.4C171.888 167.4 167.082 167.26 162.228 166.98C157.468 166.607 152.708 166.187 147.948 165.72C149.628 165.253 151.308 164.927 152.988 164.74C154.762 164.46 156.535 164.32 158.308 164.32C161.295 164.32 164.235 164.367 167.128 164.46C170.022 164.46 172.915 164.46 175.808 164.46C179.262 164.46 182.668 164.413 186.028 164.32C189.388 164.133 192.842 163.76 196.388 163.2L196.808 164.88C198.208 164.6 199.982 164.18 202.128 163.62C204.275 162.967 206.328 162.173 208.288 161.24C210.342 160.307 212.068 159.14 213.468 157.74C214.962 156.34 215.708 154.707 215.708 152.84C215.708 150.133 214.728 147.753 212.768 145.7C210.808 143.647 208.288 141.827 205.208 140.24C202.222 138.56 198.815 137.113 194.988 135.9C191.162 134.687 187.382 133.613 183.648 132.68C180.008 131.747 176.555 130.907 173.288 130.16C170.022 129.413 167.408 128.713 165.448 128.06V128.9C167.408 129.647 169.975 130.44 173.148 131.28C176.322 132.027 179.728 132.867 183.368 133.8C187.102 134.733 190.835 135.807 194.568 137.02C198.302 138.14 201.662 139.493 204.648 141.08C207.728 142.667 210.202 144.487 212.068 146.54C214.028 148.593 215.008 150.927 215.008 153.54C215.008 155.033 214.308 156.34 212.908 157.46C211.508 158.58 209.828 159.56 207.868 160.4C206.002 161.147 204.088 161.753 202.128 162.22C200.168 162.687 198.675 163.013 197.648 163.2C198.862 162.92 200.402 162.547 202.268 162.08C204.228 161.52 206.095 160.82 207.868 159.98C209.735 159.14 211.322 158.16 212.628 157.04C213.935 155.827 214.588 154.427 214.588 152.84C214.588 150.227 213.562 148.033 211.508 146.26C209.455 144.487 206.748 142.9 203.388 141.5C200.028 140.1 196.202 138.84 191.908 137.72C187.615 136.6 183.182 135.387 178.608 134.08C174.128 132.773 169.742 131.28 165.448 129.6C161.155 127.92 157.328 125.82 153.968 123.3C150.608 120.78 147.902 117.793 145.848 114.34C143.795 110.887 142.768 106.733 142.768 101.88C142.768 97.12 143.888 93.1067 146.128 89.84C148.462 86.48 151.402 83.7733 154.948 81.72C158.588 79.5733 162.555 78.0333 166.848 77.1C171.142 76.1667 175.295 75.7 179.308 75.7C185.188 75.7 190.928 76.54 196.528 78.22C202.222 79.9 207.588 82.2333 212.628 85.22C212.068 85.4067 211.742 85.6867 211.648 86.06C211.555 86.34 211.462 86.6667 211.368 87.04C211.368 87.4133 211.275 87.74 211.088 88.02C210.995 88.3 210.715 88.44 210.248 88.44C209.875 88.44 209.128 88.3 208.008 88.02C206.982 87.6467 205.862 87.2733 204.648 86.9C203.435 86.4333 202.268 86.0133 201.148 85.64C200.028 85.2667 199.282 84.9867 198.908 84.8L198.488 86.06C199.328 86.4333 200.402 86.9933 201.708 87.74C203.108 88.3933 204.415 89.2333 205.628 90.26C206.935 91.1933 208.008 92.22 208.848 93.34C209.782 94.46 210.248 95.58 210.248 96.7C210.248 97.9133 209.688 98.52 208.568 98.52C207.168 98.52 205.488 98.1467 203.528 97.4C201.662 96.6533 199.562 95.86 197.228 95.02C194.895 94.0867 192.375 93.2467 189.668 92.5C187.055 91.7533 184.395 91.38 181.688 91.38C179.915 91.38 177.815 91.5667 175.388 91.94C173.055 92.22 170.768 92.8267 168.528 93.76C166.382 94.6 164.562 95.8133 163.068 97.4C161.575 98.8933 160.828 100.807 160.828 103.14C160.828 105.287 161.808 107.107 163.768 108.6C165.822 110.093 168.482 111.447 171.748 112.66C175.108 113.873 178.888 115.04 183.088 116.16C187.288 117.28 191.582 118.54 195.968 119.94C200.448 121.247 204.788 122.787 208.988 124.56C213.188 126.333 216.922 128.48 220.188 131C223.548 133.52 226.208 136.507 228.168 139.96C230.222 143.413 231.248 147.473 231.248 152.14C231.248 156.713 230.315 160.587 228.448 163.76C226.582 166.933 224.108 169.593 221.028 171.74C217.948 173.793 214.448 175.427 210.528 176.64C206.608 177.76 202.548 178.647 198.348 179.3C194.242 179.86 190.135 180.187 186.028 180.28C182.015 180.467 178.375 180.56 175.108 180.56H161.108C160.268 180.56 159.102 180.513 157.608 180.42C156.208 180.42 154.808 180.327 153.408 180.14C152.008 180.047 150.795 179.813 149.768 179.44C148.742 179.067 148.228 178.6 148.228 178.04L148.368 177.34C152.195 177.527 155.975 177.713 159.708 177.9C163.442 177.993 167.222 178.04 171.048 178.04C174.595 178.04 178.142 178.04 181.688 178.04C184.862 177.947 188.035 177.76 191.208 177.48C189.622 177.573 188.035 177.667 186.448 177.76C184.488 177.76 182.575 177.76 180.708 177.76H175.108C166.335 177.76 157.702 177.48 149.208 176.92C149.395 176.173 149.488 175.66 149.488 175.38C149.488 175.007 149.395 174.633 149.208 174.26C149.022 174.26 148.742 174.307 148.368 174.4C148.088 174.4 147.715 174.4 147.248 174.4C146.222 174.4 145.055 174.353 143.748 174.26C142.535 174.167 141.322 173.98 140.108 173.7C138.988 173.42 138.008 173.047 137.168 172.58C136.422 172.02 136.048 171.367 136.048 170.62ZM222.008 166.98C220.422 168.38 218.742 169.547 216.968 170.48C215.382 171.32 213.748 172.113 212.068 172.86C213.748 172.3 215.382 171.647 216.968 170.9C218.742 170.153 220.422 168.847 222.008 166.98Z" fill="white"/>
    <defs>
        <linearGradient id="paint0_linear_0_1" x1="260" y1="130" x2="6.10948e-07" y2="130" gradientUnits="userSpaceOnUse">
            <stop stop-color="#944F9F"/>
            <stop offset="1" stop-color="#6390E1"/>
        </linearGradient>
    </defs>
</svg>
