<svg xmlns="http://www.w3.org/2000/svg" fill-rule="evenodd" stroke-linejoin="round" stroke-miterlimit="1.414" clip-rule="evenodd" viewBox="0 0 38 38">
  <path fill="#fff" fill-rule="nonzero" d="M34.277 21.446l-4.031-2.696 4.031-2.697v5.393zM20.361 32.877v-7.516l6.986-4.672 5.64 3.772-12.626 8.416zM18.75 22.562l-5.699-3.812 5.699-3.812 5.699 3.812-5.699 3.812zm-1.612 10.315L4.513 24.461l5.64-3.772 6.985 4.672v7.516zM3.223 16.053l4.031 2.697-4.031 2.696v-5.393zM17.138 4.622v7.516l-6.985 4.674-5.64-3.773 12.625-8.417zm3.223 0l12.626 8.417-5.64 3.773-6.986-4.674V4.622zm17.125 8.205l-.014-.07a1.467 1.467 0 0 0-.028-.135c-.007-.027-.017-.053-.025-.078a2.346 2.346 0 0 0-.041-.118l-.036-.078a1.195 1.195 0 0 0-.055-.107l-.046-.075a1.704 1.704 0 0 0-.068-.098l-.055-.07a2.196 2.196 0 0 0-.081-.087c-.021-.021-.042-.043-.064-.063a2.305 2.305 0 0 0-.091-.077l-.073-.055-.027-.02L19.644.271a1.611 1.611 0 0 0-1.788 0L.718 11.696l-.027.02-.073.055a2.305 2.305 0 0 0-.091.077c-.023.02-.043.042-.064.063a1.614 1.614 0 0 0-.08.087c-.02.023-.038.047-.056.07a1.704 1.704 0 0 0-.114.173c-.02.034-.037.07-.055.107l-.036.078a2.346 2.346 0 0 0-.066.196c-.012.044-.02.089-.028.135-.004.024-.01.046-.013.07-.01.069-.015.139-.015.21v11.426c0 .071.005.141.015.211.003.022.009.046.013.069a1.175 1.175 0 0 0 .053.213c.013.039.026.079.041.118.011.027.024.052.036.078.018.036.035.072.055.108l.046.073a1.415 1.415 0 0 0 .204.255c.021.022.041.043.064.063a1.681 1.681 0 0 0 .164.132l.027.02 17.138 11.426a1.614 1.614 0 0 0 1.788 0l17.138-11.426.027-.02c.025-.017.049-.036.073-.055.031-.025.062-.05.091-.077a1.667 1.667 0 0 0 .145-.15c.018-.022.037-.045.055-.07.024-.031.046-.064.068-.098l.046-.073c.02-.036.038-.072.055-.108.012-.026.025-.051.036-.078.015-.039.028-.079.041-.118.008-.026.018-.052.025-.078.012-.045.02-.09.028-.135l.014-.069c.008-.07.014-.14.014-.211V13.037a1.82 1.82 0 0 0-.014-.21"/>
</svg>
