<svg viewBox="0 0 290 311" fill="none" xmlns="http://www.w3.org/2000/svg">
    <path d="M80.7369 120.082L150.569 50.8436C159.745 41.7456 172.192 36.6344 185.169 36.6344C198.146 36.6344 210.59 41.7456 219.767 50.8436C228.943 59.9418 234.099 72.2822 234.099 85.1488C234.099 98.0154 228.943 110.355 219.767 119.453L149.935 188.691" stroke="#479FF7" stroke-width="26" stroke-linejoin="round"/>
    <path d="M196.219 77.6563L126.384 146.895C117.208 155.993 104.764 161.104 91.7866 161.104C78.8095 161.104 66.363 155.993 57.1867 146.895C52.6434 142.39 49.0396 137.043 46.5808 131.158C44.1219 125.272 42.8564 118.965 42.8564 112.594C42.8564 106.224 44.1219 99.9156 46.5808 94.0303C49.0396 88.145 52.6434 82.7975 57.1867 78.2933L127.021 9.04687" stroke="#479FF7" stroke-width="25" stroke-linejoin="round"/>
    <path d="M39.2469 306.258C37.4543 304.92 36.0274 303.197 35.0843 301.234C34.1412 299.271 33.7096 297.124 33.8256 294.972C33.6992 292.06 34.5397 289.183 36.2305 286.743C37.9214 284.303 40.3782 282.42 43.2582 281.358C46.572 280.099 50.122 279.487 53.6941 279.557C57.236 279.488 60.7561 280.101 64.0378 281.358C66.9082 282.43 69.3542 284.316 71.0382 286.754C72.7222 289.193 73.561 292.064 73.4386 294.972C73.5552 297.121 73.1269 299.265 72.1897 301.228C71.2524 303.19 69.8329 304.914 68.0484 306.258C63.8907 309.101 58.8248 310.517 53.6941 310.27C48.5343 310.52 43.4384 309.104 39.2469 306.258ZM61.935 301.858C63.0012 301.025 63.8473 299.97 64.4075 298.777C64.9678 297.583 65.2265 296.283 65.1633 294.979C65.228 293.66 64.9745 292.346 64.4212 291.133C63.8679 289.92 63.0295 288.842 61.9695 287.979C59.6365 286.201 56.6949 285.288 53.6974 285.411C50.6814 285.295 47.7218 286.207 45.361 287.979C44.285 288.833 43.4319 289.908 42.867 291.122C42.3022 292.335 42.0403 293.655 42.1029 294.979C42.0331 296.288 42.289 297.594 42.8495 298.794C43.41 299.993 44.26 301.053 45.3318 301.888C47.7244 303.618 50.6878 304.496 53.7 304.369C56.6755 304.483 59.5964 303.593 61.9376 301.858H61.935Z" fill="#1c2153"/>
    <path d="M85.7397 272.179V309.569H77.5898V272.184L85.7397 272.179Z" fill="#1c2153"/>
    <path d="M128.192 280.212V309.556H120.042V299.456C119.116 302.249 117.507 304.798 115.342 306.897C114.134 308.042 112.683 308.934 111.084 309.514C109.485 310.094 107.775 310.349 106.064 310.263C102.51 310.385 99.0139 309.388 96.1282 307.429C94.7138 306.267 93.6148 304.802 92.9227 303.158C92.2305 301.515 91.9649 299.739 92.1487 297.979V280.2H100.299V296.68C100.18 297.719 100.303 298.769 100.66 299.759C101.017 300.748 101.599 301.652 102.364 302.408C104.161 303.633 106.359 304.219 108.571 304.063C111.288 304.204 113.955 303.335 115.999 301.643C117.7 300.181 119.074 298.414 120.042 296.446V280.204L128.192 280.212Z" fill="#1c2153"/>
    <path d="M155.565 286.177H147.54V309.564H139.392V286.177H131.367V280.21H139.392V272.184H147.54V280.21H155.565V286.177Z" fill="#1c2153"/>
    <path d="M167.119 280.212H158.969V309.566H167.119V280.212Z" fill="#1c2153"/>
    <path d="M177.256 306.258C175.465 304.918 174.039 303.196 173.096 301.233C172.153 299.27 171.721 297.124 171.835 294.972C171.709 292.06 172.549 289.183 174.24 286.743C175.93 284.303 178.388 282.42 181.268 281.358C184.582 280.099 188.132 279.486 191.704 279.557C195.245 279.488 198.763 280.101 202.044 281.358C204.914 282.43 207.361 284.316 209.045 286.754C210.729 289.193 211.567 292.064 211.445 294.972C211.562 297.121 211.133 299.265 210.196 301.228C209.259 303.19 207.84 304.915 206.056 306.258C201.898 309.101 196.832 310.517 191.701 310.27C186.542 310.519 181.447 309.103 177.256 306.258ZM199.947 301.859C201.013 301.025 201.859 299.97 202.419 298.776C202.979 297.583 203.238 296.283 203.176 294.979C203.24 293.66 202.985 292.346 202.432 291.133C201.879 289.92 201.041 288.842 199.981 287.979C197.648 286.202 194.707 285.288 191.709 285.411C188.693 285.294 185.734 286.206 183.373 287.979C182.296 288.832 181.442 289.907 180.877 291.121C180.311 292.335 180.05 293.655 180.113 294.979C180.043 296.288 180.298 297.595 180.859 298.794C181.419 299.994 182.269 301.053 183.341 301.889C185.733 303.618 188.697 304.496 191.709 304.369C194.685 304.483 197.606 303.593 199.947 301.859Z" fill="#1c2153"/>
    <path d="M248.327 282.592C249.611 283.743 250.608 285.147 251.247 286.705C251.887 288.262 252.154 289.933 252.027 291.598V309.553H243.875V292.958C243.965 291.972 243.842 290.98 243.513 290.041C243.185 289.101 242.657 288.234 241.963 287.493C240.199 286.179 237.966 285.555 235.727 285.75C233.152 285.713 230.619 286.369 228.426 287.641C226.508 288.65 224.999 290.228 224.131 292.13V309.553H215.984V280.21H224.131V288.656C225.059 286.035 226.861 283.767 229.27 282.191C231.999 280.386 235.277 279.464 238.61 279.562C242.136 279.403 245.598 280.482 248.327 282.592Z" fill="#1c2153"/>
    <path d="M263.11 300.522C263.592 301.928 264.622 303.11 265.992 303.83C267.719 304.718 269.669 305.146 271.634 305.069C273.255 305.201 274.883 304.905 276.335 304.214C276.769 303.928 277.119 303.542 277.35 303.092C277.58 302.642 277.685 302.144 277.652 301.646C277.682 301.132 277.541 300.623 277.248 300.188C276.956 299.754 276.526 299.416 276.02 299.223C274.079 298.548 272.06 298.093 270.006 297.866C266.536 297.445 263.166 296.476 260.037 295.002C258.919 294.439 257.995 293.586 257.373 292.545C256.752 291.503 256.459 290.316 256.53 289.123C256.515 287.793 256.888 286.484 257.606 285.339C258.324 284.194 259.36 283.257 260.604 282.627C263.793 280.94 267.418 280.122 271.073 280.265C274.729 280.024 278.362 280.984 281.352 282.981C282.502 283.863 283.421 284.982 284.04 286.252C284.659 287.521 284.962 288.908 284.924 290.304H277.716C277.508 289.038 276.774 287.901 275.677 287.144C274.273 286.407 272.673 286.069 271.07 286.171C269.483 286.087 267.9 286.381 266.465 287.026C265.98 287.25 265.572 287.599 265.289 288.033C265.006 288.467 264.86 288.967 264.868 289.477C264.854 289.836 264.929 290.195 265.086 290.523C265.244 290.851 265.48 291.14 265.777 291.368C266.555 291.914 267.454 292.288 268.408 292.459C269.556 292.716 271.258 293.021 273.513 293.374C275.774 293.79 278.006 294.342 280.192 295.027C281.773 295.537 283.194 296.41 284.327 297.568C285.487 298.846 286.082 300.495 285.991 302.175C286.031 303.478 285.702 304.767 285.036 305.909C284.369 307.052 283.39 308.005 282.201 308.671C279.004 310.363 275.363 311.161 271.702 310.973C268.347 311.108 265.009 310.46 261.986 309.085C259.858 308.118 258.065 306.602 256.814 304.713C255.945 303.473 255.517 302.004 255.593 300.52L263.11 300.522Z" fill="#1c2153"/>
    <path d="M7.52806 299.822C8.01033 301.228 9.04035 302.41 10.4106 303.13C12.1371 304.019 14.088 304.448 16.0536 304.372C17.6742 304.503 19.3021 304.207 20.7543 303.516C21.1886 303.23 21.5371 302.844 21.7673 302.394C21.9976 301.944 22.1015 301.446 22.0688 300.948C22.0982 300.435 21.9572 299.926 21.6653 299.491C21.3734 299.057 20.9448 298.719 20.4398 298.525C18.4978 297.85 16.4778 297.395 14.4219 297.168C10.9531 296.747 7.58464 295.779 4.45706 294.304C3.33815 293.742 2.41288 292.889 1.7909 291.848C1.16892 290.806 0.875889 289.619 0.946147 288.426C0.932261 287.096 1.30464 285.787 2.02288 284.642C2.74112 283.497 3.77788 282.56 5.0211 281.93C8.2104 280.243 11.8351 279.425 15.4895 279.567C19.146 279.327 22.7775 280.287 25.7682 282.283C26.9178 283.166 27.8379 284.285 28.4571 285.554C29.0763 286.824 29.3781 288.21 29.3402 289.607H22.1325C21.9245 288.341 21.1926 287.204 20.0967 286.447C18.6932 285.709 17.0931 285.37 15.4895 285.471C13.9017 285.388 12.3167 285.683 10.8817 286.329C10.3965 286.553 9.98896 286.902 9.70622 287.336C9.42348 287.769 9.27754 288.27 9.28514 288.779C9.27085 289.139 9.34534 289.497 9.50283 289.825C9.66032 290.153 9.89669 290.443 10.1929 290.67C10.9715 291.217 11.8715 291.591 12.8253 291.764C13.9733 292.019 15.6758 292.324 17.9328 292.679C20.1931 293.095 22.423 293.647 24.6083 294.332C26.1897 294.842 27.6112 295.715 28.7443 296.872C29.9044 298.151 30.4998 299.8 30.4078 301.48C30.4482 302.783 30.1176 304.073 29.4507 305.215C28.7837 306.357 27.8047 307.31 26.6149 307.975C23.4192 309.668 19.7775 310.467 16.1172 310.278C12.763 310.412 9.42582 309.763 6.40259 308.387C4.27465 307.42 2.4811 305.904 1.23076 304.015C0.358839 302.776 -0.069237 301.307 0.00912246 299.822H7.52806Z" fill="#1c2153"/>
    <path d="M163.044 277.218C166.038 277.218 168.466 274.93 168.466 272.109C168.466 269.287 166.038 267 163.044 267C160.05 267 157.622 269.287 157.622 272.109C157.622 274.93 160.05 277.218 163.044 277.218Z" fill="#2D90F4"/>
    <path d="M79.0971 226.72V257.93H70.9265V247.188C69.9991 250.16 68.3845 252.871 66.2139 255.103C65.0033 256.32 63.5493 257.269 61.9468 257.885C60.3443 258.502 58.6297 258.774 56.9149 258.683C53.3525 258.813 49.8479 257.752 46.9561 255.668C45.5354 254.433 44.4309 252.877 43.7346 251.128C43.0383 249.38 42.7704 247.49 42.9535 245.617V226.71H51.1241V244.235C51.0054 245.34 51.1295 246.458 51.4876 247.51C51.8457 248.563 52.4294 249.524 53.1977 250.328C54.9984 251.63 57.2019 252.252 59.4178 252.086C62.1419 252.237 64.8163 251.312 66.8653 249.512C68.5708 247.957 69.9483 246.078 70.9181 243.985V226.71L79.0971 226.72Z" fill="#1c2153"/>
    <path d="M97.581 229.139C98.5971 228.097 99.8226 227.28 101.176 226.744C102.53 226.208 103.982 225.965 105.437 226.029V233.442C102.628 233.282 99.8546 234.129 97.6136 235.829C95.8773 237.212 94.4528 238.947 93.4345 240.919V257.943H85.2639V226.733H93.4345V236.093C94.2575 233.485 95.6772 231.104 97.581 229.139Z" fill="#1c2153"/>
    <path d="M120.817 229.139C121.833 228.097 123.057 227.28 124.411 226.744C125.764 226.208 127.216 225.965 128.67 226.029V233.442C125.861 233.283 123.088 234.13 120.847 235.829C119.11 237.212 117.686 238.947 116.667 240.919V257.943H108.5V226.733H116.667V236.093C117.491 233.484 118.912 231.104 120.817 229.139Z" fill="#1c2153"/>
    <path d="M167.948 247.577C167.682 249.229 167.065 250.804 166.139 252.196C165.212 253.589 163.998 254.766 162.577 255.649C158.894 257.852 154.639 258.912 150.353 258.695C146.718 258.768 143.107 258.105 139.735 256.748C136.87 255.602 134.395 253.658 132.603 251.146C130.862 248.574 129.972 245.52 130.057 242.415C129.976 239.298 130.841 236.229 132.539 233.613C134.269 231.081 136.706 229.114 139.546 227.958C142.895 226.596 146.487 225.934 150.102 226.01C162.627 226.01 168.618 231.957 168.074 243.851H138.286C138.438 245.068 138.836 246.242 139.458 247.3C140.079 248.359 140.91 249.279 141.899 250.005C144.313 251.701 147.225 252.541 150.172 252.392C152.394 252.455 154.601 251.993 156.611 251.042C158.167 250.376 159.398 249.123 160.037 247.556L167.948 247.577ZM142.471 234.165C140.649 235.279 139.314 237.039 138.735 239.094H159.973C159.885 238.087 159.568 237.113 159.045 236.248C158.522 235.382 157.808 234.648 156.957 234.101C154.792 232.767 152.272 232.12 149.731 232.247C147.175 232.155 144.648 232.823 142.471 234.165Z" fill="#1c2153"/>
    <path d="M205.234 229.262C206.521 230.487 207.52 231.981 208.161 233.637C208.802 235.294 209.068 237.072 208.94 238.844V257.94H200.772V240.289C200.862 239.242 200.739 238.187 200.41 237.188C200.08 236.189 199.552 235.268 198.856 234.48C197.087 233.082 194.849 232.419 192.605 232.626C190.023 232.588 187.483 233.285 185.282 234.637C183.362 235.71 181.849 237.388 180.981 239.409V257.94H172.81V226.73H180.981V235.712C181.909 232.924 183.717 230.511 186.131 228.835C188.869 226.916 192.155 225.936 195.497 226.04C199.03 225.871 202.499 227.019 205.234 229.262Z" fill="#1c2153"/>
    <path d="M246.554 255.238C242.646 257.737 238.053 258.95 233.42 258.706C229.856 258.774 226.312 258.144 222.99 256.852C220.133 255.743 217.664 253.822 215.889 251.325C214.121 248.705 213.22 245.596 213.314 242.437C213.224 239.268 214.124 236.15 215.889 233.516C217.66 230.998 220.128 229.052 222.99 227.915C226.308 226.603 229.853 225.963 233.42 226.031C238.017 225.786 242.575 226.983 246.458 229.454C248.013 230.533 249.304 231.95 250.234 233.598C251.165 235.246 251.711 237.083 251.832 238.971H244.361C243.678 236.913 242.272 235.173 240.403 234.071C237.995 232.781 235.278 232.181 232.551 232.336C229.823 232.491 227.191 233.397 224.945 234.951C223.839 235.844 222.96 236.987 222.381 238.285C221.802 239.584 221.54 241.001 221.615 242.421C221.533 243.83 221.79 245.238 222.364 246.527C222.937 247.817 223.812 248.951 224.913 249.834C227.377 251.634 230.38 252.542 233.428 252.408C235.924 252.509 238.398 251.9 240.561 250.65C242.412 249.494 243.783 247.709 244.425 245.624H251.896C251.799 247.528 251.267 249.384 250.341 251.051C249.415 252.717 248.119 254.149 246.554 255.238Z" fill="#1c2153"/>
    <path d="M33.2469 255.238C29.339 257.737 24.7456 258.95 20.1128 258.706C16.5482 258.774 13.005 258.144 9.68225 256.852C6.82553 255.743 4.35641 253.822 2.58134 251.325C0.812429 248.705 -0.0879057 245.596 0.00677 242.437C-0.0842138 239.268 0.815511 236.15 2.58134 233.516C4.35241 230.998 6.8205 229.051 9.68225 227.915C13.0002 226.603 16.5455 225.963 20.1128 226.031C24.7101 225.786 29.269 226.983 33.1531 229.454C34.7078 230.533 35.9988 231.95 36.9289 233.598C37.859 235.246 38.4048 237.083 38.525 238.971H31.0534C30.37 236.913 28.9628 235.172 27.0932 234.071C24.6852 232.781 21.968 232.181 19.2405 232.336C16.513 232.491 13.8812 233.397 11.6353 234.952C10.5289 235.844 9.65009 236.987 9.07118 238.286C8.49228 239.584 8.22967 241.001 8.30507 242.421C8.22363 243.83 8.48132 245.238 9.05555 246.528C9.62978 247.817 10.504 248.951 11.606 249.834C14.0691 251.634 17.0721 252.542 20.1206 252.408C22.6168 252.51 25.0908 251.9 27.2534 250.65C29.1051 249.494 30.4778 247.71 31.1198 245.624H38.5914C38.4944 247.528 37.9623 249.385 37.0358 251.052C36.1092 252.718 34.8132 254.15 33.2469 255.238Z" fill="#1c2153"/>
    <path d="M290 226.72L270.11 267H261.635L266.751 257.631L251.807 226.726H260.48L270.846 249.592L281.278 226.726L290 226.72Z" fill="#1c2153"/>
</svg>
