<svg xmlns="http://www.w3.org/2000/svg" fill-rule="evenodd" stroke-linejoin="round" stroke-miterlimit="1.414" clip-rule="evenodd" viewBox="0 0 38 38">
  <path fill="#fff" d="M24.5 37.5H13c-10.5 0-13-2.5-13-13V13C0 2.5 2.5 0 13 0h11.5c10.5 0 13 2.5 13 13v11.5c0 10.5-2.5 13-13 13zM9.964 11.914H7.229c-.781 0-.937.368-.937.773 0 .725.927 4.317 4.316 9.068 2.26 3.244 5.443 5.003 8.34 5.003 1.738 0 1.953-.391 1.953-1.064v-2.452c0-.781.165-.937.715-.937.406 0 1.101.203 2.723 1.767 1.855 1.854 2.16 2.686 3.203 2.686h2.734c.782 0 1.172-.391.947-1.162-.247-.768-1.132-1.883-2.306-3.204-.638-.753-1.594-1.564-1.883-1.97-.406-.521-.29-.753 0-1.217 0 0 3.331-4.692 3.679-6.286.173-.579 0-1.005-.827-1.005h-2.735c-.695 0-1.015.368-1.189.773 0 0-1.391 3.39-3.361 5.592-.637.637-.927.84-1.274.84-.174 0-.426-.203-.426-.783v-5.417c0-.695-.201-1.005-.781-1.005h-4.297c-.434 0-.696.323-.696.629 0 .659.985.811 1.087 2.665v4.026c0 .883-.16 1.043-.507 1.043-.927 0-3.182-3.404-4.52-7.3-.262-.757-.524-1.063-1.223-1.063z"/>
  <clipPath id="a">
    <path d="M24.5 37.5H13c-10.5 0-13-2.5-13-13V13C0 2.5 2.5 0 13 0h11.5c10.5 0 13 2.5 13 13v11.5c0 10.5-2.5 13-13 13zM9.964 11.914H7.229c-.781 0-.937.368-.937.773 0 .725.927 4.317 4.316 9.068 2.26 3.244 5.443 5.003 8.34 5.003 1.738 0 1.953-.391 1.953-1.064v-2.452c0-.781.165-.937.715-.937.406 0 1.101.203 2.723 1.767 1.855 1.854 2.16 2.686 3.203 2.686h2.734c.782 0 1.172-.391.947-1.162-.247-.768-1.132-1.883-2.306-3.204-.638-.753-1.594-1.564-1.883-1.97-.406-.521-.29-.753 0-1.217 0 0 3.331-4.692 3.679-6.286.173-.579 0-1.005-.827-1.005h-2.735c-.695 0-1.015.368-1.189.773 0 0-1.391 3.39-3.361 5.592-.637.637-.927.84-1.274.84-.174 0-.426-.203-.426-.783v-5.417c0-.695-.201-1.005-.781-1.005h-4.297c-.434 0-.696.323-.696.629 0 .659.985.811 1.087 2.665v4.026c0 .883-.16 1.043-.507 1.043-.927 0-3.182-3.404-4.52-7.3-.262-.757-.524-1.063-1.223-1.063z"/>
  </clipPath>
  <g clip-path="url(#a)">
    <path fill="#fff" fill-rule="nonzero" d="M-.977-.977h39.453v39.453H-.977z"/>
  </g>
</svg>
