<svg xmlns="http://www.w3.org/2000/svg" fill-rule="evenodd" stroke-linejoin="round" stroke-miterlimit="1.414" clip-rule="evenodd" viewBox="0 0 38 38">
  <path fill="#fff" fill-rule="nonzero" d="M18.748 0C8.396 0 0 8.607 0 19.225c0 8.494 5.372 15.699 12.823 18.241.938.177 1.28-.417 1.28-.927 0-.455-.016-1.665-.026-3.269-5.215 1.162-6.315-2.577-6.315-2.577-.853-2.221-2.083-2.812-2.083-2.812-1.702-1.192.129-1.169.129-1.169 1.882.136 2.872 1.982 2.872 1.982 1.673 2.937 4.389 2.089 5.457 1.596.171-1.241.655-2.088 1.19-2.569-4.163-.485-8.54-2.135-8.54-9.501 0-2.099.73-3.816 1.93-5.159-.193-.486-.837-2.442.184-5.088 0 0 1.574-.517 5.156 1.971a17.577 17.577 0 0 1 4.694-.648c1.593.009 3.196.221 4.694.648 3.579-2.488 5.15-1.971 5.15-1.971 1.024 2.646.38 4.602.188 5.088 1.202 1.343 1.927 3.06 1.927 5.159 0 7.385-4.384 9.01-8.56 9.486.672.593 1.272 1.767 1.272 3.56 0 2.57-.023 4.643-.023 5.273 0 .515.338 1.113 1.289.926 7.445-2.548 12.812-9.749 12.812-18.24C37.5 8.607 29.104 0 18.748 0"/>
</svg>
