<svg xmlns="http://www.w3.org/2000/svg" fill-rule="evenodd" stroke-linejoin="round" stroke-miterlimit="1.414" clip-rule="evenodd" viewBox="0 0 39 28">
  <path fill="none" stroke="#fff" stroke-width="1.5" d="M4.197 27h30.606c1.901 0 3.447-1.428 3.447-3.182V3.932c0-1.754-1.546-3.182-3.447-3.182H4.197C2.296.75.75 2.178.75 3.932v19.886C.75 25.572 2.296 27 4.197 27zM2.995 3.932c0-.612.538-1.11 1.202-1.11h30.606c.664 0 1.202.498 1.202 1.11v19.886c0 .612-.539 1.11-1.202 1.11H4.197c-.664 0-1.202-.498-1.202-1.11V3.932zm4.45 19.53H5.2V4.376l14.02 8.402a.565.565 0 0 0 .56 0L33.8 4.376v19.086h-2.245V8.192l-10.552 6.324c-.448.268-.968.41-1.503.41a2.927 2.927 0 0 1-1.503-.41L7.445 8.192v15.27z"/>
</svg>
