<svg xmlns="http://www.w3.org/2000/svg" fill-rule="evenodd" stroke-linejoin="round" stroke-miterlimit="1.414" clip-rule="evenodd" viewBox="0 0 391 444">
  <g fill-rule="nonzero">
    <path fill="#e34f26" d="M35.511 398.682L0 0h390.625l-35.511 398.682-160.235 45.068"/>
    <path fill="#ef652a" d="M195.746 409.082l129.053-35.535 30.315-341.479H195.746"/>
    <path fill="#ebebeb" d="M195.746 180.273h-64.96l-4.331-50.268h69.291V81.47H72.755l.866 13 12.126 135.205h109.999v-49.402zm0 127.405h-.867l-54.566-14.734-3.464-39.001H88.345l6.063 77.136 100.471 27.734h.867v-51.135z"/>
    <path fill="#fff" d="M194.879 180.273v49.402h60.63l-6.063 63.269-54.567 14.734v51.135l100.472-27.734.866-8.667 11.259-129.138 1.733-13.001h-114.33zm0-98.803v48.535h118.66l.866-10.401 2.599-25.134.866-13H194.879z"/>
  </g>
</svg>
