<svg xmlns="http://www.w3.org/2000/svg" fill-rule="evenodd" stroke-linejoin="round" stroke-miterlimit="1.414" clip-rule="evenodd" viewBox="0 0 94 90">
  <g fill="#0e69ae" fill-rule="nonzero">
    <path d="M5.957 21.139c-8.302 11.886-7.275 27.351-.926 39.982.143.309.307.6.463.897.088.195.19.387.299.578.047.103.122.219.184.321.102.207.209.396.319.594.204.341.408.69.612 1.029.115.191.226.38.353.57.217.365.47.726.694 1.093.102.156.197.309.307.461.326.496.654.984 1.012 1.464 0 .014.015.027.028.034.054.082.115.16.169.234.306.416.612.823.933 1.226.109.149.23.298.339.445.293.352.579.704.863 1.053.11.125.219.258.334.386.381.458.781.912 1.191 1.36 0 .006.013.015.02.026.013.016.026.034.055.051.393.43.794.853 1.202 1.274.13.129.259.254.401.39.313.315.627.634.96.945.135.128.272.254.401.379.435.407.871.813 1.326 1.204.006.007.013.011.02.016.075.065.157.129.224.193.401.343.804.68 1.21 1.016.164.136.328.265.49.398.341.267.68.525 1.02.782l.538.407c.368.274.749.541 1.122.806.135.098.271.196.415.287.033.031.075.058.108.085.373.245.729.482 1.095.723.164.103.32.207.477.31.57.364 1.141.712 1.707 1.052.162.085.324.176.481.267.423.245.851.484 1.286.715.237.132.476.249.72.368.293.16.599.324.913.483.074.029.149.057.216.095.13.058.252.121.374.181.477.235.965.456 1.47.679.095.044.197.084.299.137.563.243 1.128.477 1.707.704.135.051.271.111.413.158a65.94 65.94 0 0 0 1.606.597c.069.028.129.047.196.071.6.203 1.19.396 1.797.583.142.042.286.092.435.129.618.187 1.217.403 1.849.523 40.138 7.291 51.801-24.042 51.801-24.042-9.799 12.709-27.186 16.068-43.656 12.333-.612-.138-1.217-.33-1.834-.514-.144-.042-.306-.089-.45-.138a55.451 55.451 0 0 1-1.767-.57 3.65 3.65 0 0 1-.252-.092 40.448 40.448 0 0 1-1.557-.576c-.142-.06-.292-.113-.436-.165a46.012 46.012 0 0 1-1.685-.706c-.124-.044-.226-.095-.341-.142-.482-.22-.945-.436-1.415-.661-.142-.06-.272-.129-.414-.2-.368-.172-.734-.366-1.095-.555-.251-.129-.497-.247-.734-.38-.442-.236-.885-.488-1.326-.731-.137-.093-.286-.171-.443-.255a59.877 59.877 0 0 1-1.712-1.047 8.863 8.863 0 0 1-.463-.309 38.584 38.584 0 0 1-1.224-.806c-.13-.091-.259-.185-.394-.281a82.77 82.77 0 0 1-1.157-.826 17.385 17.385 0 0 0-.51-.387c-.346-.267-.694-.532-1.04-.81-.149-.125-.306-.247-.455-.368-.449-.36-.871-.719-1.299-1.092-.042-.045-.102-.081-.15-.119-.455-.405-.911-.823-1.361-1.237-.136-.129-.249-.247-.386-.368-.326-.32-.654-.63-.973-.954-.136-.134-.258-.259-.388-.388a37.11 37.11 0 0 1-1.202-1.267.454.454 0 0 1-.062-.062 53.396 53.396 0 0 1-1.217-1.382c-.109-.125-.211-.254-.319-.376-.293-.359-.587-.722-.885-1.082-.095-.138-.204-.27-.314-.406a50.734 50.734 0 0 1-1.013-1.344C8.418 44.169 5.121 27.021 12.43 12.951"/>
    <path d="M31.728 11.12c-6.019 8.606-5.686 20.13-1 29.237a35.686 35.686 0 0 0 2.653 4.411c.896 1.288 1.889 2.813 3.093 3.848.421.474.876.935 1.346 1.398l.354.35c.45.429.905.853 1.373 1.266.015.018.041.034.055.052l.015.009c.523.461 1.053.899 1.605 1.326.127.09.244.192.373.285.543.423 1.102.829 1.665 1.229.02.007.035.02.062.031.244.176.503.339.769.508.115.074.237.162.354.234.413.267.821.518 1.244.766.06.029.122.064.182.093.355.214.729.425 1.102.614.13.078.259.139.388.21.259.129.516.264.767.396.035.018.082.038.124.055.53.261 1.068.501 1.598.742l.361.145c.435.187.876.371 1.311.536.197.065.381.142.565.207.401.142.809.281 1.21.412.196.065.373.12.552.178.57.18 1.149.41 1.754.503 30.98 5.122 38.147-18.662 38.147-18.662-6.453 9.265-18.945 13.675-32.272 10.227a28.42 28.42 0 0 1-1.756-.509c-.182-.047-.346-.105-.523-.167-.413-.13-.829-.27-1.231-.419-.182-.067-.374-.136-.556-.207-.443-.172-.885-.341-1.313-.532-.13-.051-.252-.094-.354-.149a50.571 50.571 0 0 1-1.625-.744c-.271-.14-.537-.276-.809-.418-.164-.082-.32-.16-.462-.234-.361-.185-.695-.383-1.035-.583-.08-.043-.162-.085-.244-.132-.414-.251-.844-.501-1.237-.763-.137-.076-.252-.165-.381-.247a34.05 34.05 0 0 1-.816-.532c-.565-.388-1.115-.802-1.665-1.216-.132-.106-.254-.2-.376-.302-5.848-4.588-10.472-10.862-12.661-17.967-2.312-7.38-1.802-15.664 2.184-22.384"/>
    <path d="M53.393 3.635c-3.55 5.191-3.891 11.639-1.443 17.366 2.598 6.086 7.909 10.859 14.098 13.119.251.098.502.18.761.267.115.035.224.071.346.109.361.111.722.247 1.095.319 17.114 3.294 21.753-8.752 22.997-10.524-4.072 5.835-10.906 7.233-19.291 5.203-.66-.16-1.381-.396-2.019-.626a26.678 26.678 0 0 1-2.414-.993 25.365 25.365 0 0 1-4.223-2.571C55.793 19.632 51.141 8.813 56.037 0"/>
  </g>
</svg>
